CrickxRush.ufo
<glyph name="exclam" format="1">
  <advance width="335"/>
  <unicode hex="0021"/>
  <outline>
    <contour>
      <point x="307" y="731" type="qcurve" smooth="no"/>
      <point x="304" y="635"/>
      <point x="287" y="538" type="qcurve" smooth="yes"/>
      <point x="230" y="219" type="line" smooth="no"/>
      <point x="209" y="218"/>
      <point x="176" y="216"/>
      <point x="145" y="215"/>
      <point x="112" y="213"/>
      <point x="91" y="213" type="qcurve" smooth="no"/>
      <point x="94" y="255"/>
      <point x="85" y="341"/>
      <point x="94" y="381" type="qcurve" smooth="no"/>
      <point x="92" y="393" type="line" smooth="no"/>
      <point x="125" y="670" type="line" smooth="no"/>
      <point x="127" y="670" type="line" smooth="no"/>
      <point x="127" y="681"/>
      <point x="129" y="706"/>
      <point x="131" y="717" type="qcurve" smooth="no"/>
      <point x="173" y="723"/>
      <point x="262" y="726"/>
    </contour>
    <contour>
      <point x="239" y="140" type="qcurve" smooth="no"/>
      <point x="232" y="63"/>
      <point x="230" y="46" type="qcurve" smooth="yes"/>
      <point x="226" y="-12" type="line" smooth="no"/>
      <point x="184" y="-14"/>
      <point x="105" y="-13"/>
      <point x="63" y="-14" type="qcurve" smooth="no"/>
      <point x="67" y="84" type="line" smooth="no"/>
      <point x="69" y="84" type="line" smooth="no"/>
      <point x="69" y="95"/>
      <point x="71" y="120"/>
      <point x="73" y="131" type="qcurve" smooth="no"/>
      <point x="115" y="137"/>
      <point x="194" y="135"/>
    </contour>
    <contour>
      <point x="184" y="538" type="line" smooth="no"/>
      <point x="183" y="536" type="line" smooth="no"/>
      <point x="188" y="532" type="line" smooth="no"/>
      <point x="189" y="534" type="line" smooth="no"/>
    </contour>
    <contour>
      <point x="230" y="444" type="line" smooth="no"/>
      <point x="229" y="442" type="line" smooth="no"/>
      <point x="232" y="440" type="line" smooth="no"/>
      <point x="233" y="441" type="line" smooth="no"/>
    </contour>
  </outline>
</glyph>
<glyph name="quotedbl" format="1">
  <advance width="301"/>
  <unicode hex="0022"/>
  <outline>
    <contour>
      <point x="317" y="682" type="line" smooth="no"/>
      <point x="313" y="560" type="line" smooth="no"/>
      <point x="293" y="497" type="line" smooth="no"/>
      <point x="275" y="434" type="line" smooth="no"/>
      <point x="251" y="419" type="line" smooth="no"/>
      <point x="215" y="437" type="line" smooth="no"/>
      <point x="212" y="557" type="line" smooth="no"/>
      <point x="203" y="557"/>
      <point x="197" y="561"/>
      <point x="193" y="565"/>
      <point x="186" y="568"/>
      <point x="177" y="568" type="qcurve" smooth="no"/>
      <point x="171" y="645" type="line" smooth="no"/>
      <point x="173" y="645" type="line" smooth="no"/>
      <point x="173" y="671"/>
      <point x="176" y="697" type="qcurve" smooth="no"/>
      <point x="213" y="704"/>
      <point x="281" y="701"/>
      <point x="319" y="707" type="qcurve" smooth="no"/>
    </contour>
    <contour>
      <point x="120" y="497" type="line" smooth="no"/>
      <point x="103" y="434" type="line" smooth="no"/>
      <point x="79" y="419" type="line" smooth="no"/>
      <point x="50" y="423" type="line" smooth="no"/>
      <point x="41" y="541" type="line" smooth="no"/>
      <point x="32" y="541"/>
      <point x="25" y="550"/>
      <point x="21" y="560"/>
      <point x="14" y="568"/>
      <point x="4" y="568" type="qcurve" smooth="no"/>
      <point x="-1" y="645" type="line" smooth="no"/>
      <point x="1" y="645" type="line" smooth="no"/>
      <point x="1" y="658"/>
      <point x="2" y="684"/>
      <point x="4" y="697" type="qcurve" smooth="no"/>
      <point x="40" y="704"/>
      <point x="109" y="701"/>
      <point x="147" y="707" type="qcurve" smooth="no"/>
      <point x="145" y="682" type="line" smooth="no"/>
      <point x="149" y="579" type="line" smooth="no"/>
    </contour>
  </outline>
</glyph>
<glyph name="numbersign" format="1">
  <advance width="721"/>
  <unicode hex="0023"/>
  <outline>
    <contour>
      <point x="723" y="408" type="line" smooth="no"/>
      <point x="600" y="408" type="line" smooth="no"/>
      <point x="563" y="301" type="line" smooth="no"/>
      <point x="689" y="301" type="line" smooth="no"/>
      <point x="640" y="171" type="line" smooth="no"/>
      <point x="516" y="171" type="line" smooth="no"/>
      <point x="452" y="-8" type="line" smooth="no"/>
      <point x="311" y="-8" type="line" smooth="no"/>
      <point x="375" y="171" type="line" smooth="no"/>
      <point x="264" y="171" type="line" smooth="no"/>
      <point x="200" y="-8" type="line" smooth="no"/>
      <point x="59" y="-8" type="line" smooth="no"/>
      <point x="123" y="171" type="line" smooth="no"/>
      <point x="-3" y="171" type="line" smooth="no"/>
      <point x="46" y="301" type="line" smooth="no"/>
      <point x="170" y="301" type="line" smooth="no"/>
      <point x="206" y="408" type="line" smooth="no"/>
      <point x="80" y="408" type="line" smooth="no"/>
      <point x="128" y="539" type="line" smooth="no"/>
      <point x="254" y="539" type="line" smooth="no"/>
      <point x="317" y="718" type="line" smooth="no"/>
      <point x="458" y="718" type="line" smooth="no"/>
      <point x="395" y="539" type="line" smooth="no"/>
      <point x="506" y="539" type="line" smooth="no"/>
      <point x="569" y="718" type="line" smooth="no"/>
      <point x="710" y="718" type="line" smooth="no"/>
      <point x="647" y="539" type="line" smooth="no"/>
      <point x="772" y="539" type="line" smooth="no"/>
    </contour>
    <contour>
      <point x="345" y="408" type="line" smooth="no"/>
      <point x="307" y="301" type="line" smooth="no"/>
      <point x="424" y="301" type="line" smooth="no"/>
      <point x="462" y="408" type="line" smooth="no"/>
    </contour>
  </outline>
</glyph>
<glyph name="parenright" format="1">
  <advance width="414"/>
  <unicode hex="0029"/>
  <outline>
    <contour>
      <point x="355" y="687" type="qcurve" smooth="no"/>
      <point x="377" y="646"/>
      <point x="379" y="555"/>
      <point x="363" y="462"/>
      <point x="339" y="370"/>
      <point x="335" y="328" type="qcurve" smooth="yes"/>
      <point x="331" y="289"/>
      <point x="312" y="179"/>
      <point x="278" y="69"/>
      <point x="228" y="-25"/>
      <point x="194" y="-46" type="qcurve" smooth="yes"/>
      <point x="179" y="-55"/>
      <point x="139" y="-71"/>
      <point x="95" y="-82"/>
      <point x="53" y="-90"/>
      <point x="37" y="-92" type="qcurve" smooth="yes"/>
      <point x="35" y="-92"/>
      <point x="41" y="-66"/>
      <point x="49" y="-27"/>
      <point x="61" y="20"/>
      <point x="69" y="59"/>
      <point x="74" y="86"/>
      <point x="73" y="86" type="qcurve" smooth="no"/>
      <point x="80" y="87"/>
      <point x="98" y="92"/>
      <point x="116" y="98"/>
      <point x="132" y="107"/>
      <point x="136" y="112" type="qcurve" smooth="no"/>
      <point x="147" y="147"/>
      <point x="168" y="263"/>
      <point x="203" y="505"/>
      <point x="209" y="540" type="qcurve" smooth="no"/>
      <point x="176" y="569" type="line" smooth="yes"/>
      <point x="175" y="571"/>
      <point x="181" y="600"/>
      <point x="201" y="687"/>
      <point x="209" y="726"/>
      <point x="212" y="753"/>
      <point x="210" y="753" type="qcurve" smooth="no"/>
      <point x="252" y="749"/>
      <point x="329" y="717"/>
    </contour>
  </outline>
</glyph>
<glyph name="period" format="1">
  <advance width="316"/>
  <unicode hex="002e"/>
  <outline>
    <contour>
      <point x="249" y="156" type="qcurve" smooth="no"/>
      <point x="245" y="120"/>
      <point x="241" y="72"/>
      <point x="239" y="52" type="qcurve" smooth="yes"/>
      <point x="235" y="-12" type="line" smooth="no"/>
      <point x="188" y="-14"/>
      <point x="101" y="-13"/>
      <point x="55" y="-14" type="qcurve" smooth="no"/>
      <point x="59" y="94" type="line" smooth="no"/>
      <point x="61" y="94" type="line" smooth="no"/>
      <point x="61" y="107"/>
      <point x="63" y="133"/>
      <point x="66" y="146" type="qcurve" smooth="no"/>
      <point x="112" y="153"/>
      <point x="200" y="150"/>
    </contour>
  </outline>
</glyph>
<glyph name="slash" format="1">
  <advance width="288"/>
  <unicode hex="002f"/>
  <outline>
    <contour>
      <point x="309" y="738" type="qcurve" smooth="no"/>
      <point x="300" y="682"/>
      <point x="262" y="518" type="line" smooth="yes"/>
      <point x="127" y="-72" type="line" smooth="no"/>
      <point x="90" y="-68"/>
      <point x="16" y="-63"/>
      <point x="-21" y="-58" type="qcurve" smooth="no"/>
      <point x="7" y="89"/>
      <point x="21" y="134" type="qcurve" smooth="no"/>
      <point x="21" y="148" type="line" smooth="no"/>
      <point x="142" y="691" type="line" smooth="no"/>
      <point x="144" y="691" type="line" smooth="no"/>
      <point x="147" y="719"/>
      <point x="155" y="745" type="qcurve" smooth="no"/>
      <point x="192" y="747"/>
      <point x="270" y="738"/>
    </contour>
    <contour>
      <point x="126" y="303" type="line" smooth="no"/>
      <point x="125" y="301" type="line" smooth="no"/>
      <point x="129" y="296" type="line" smooth="no"/>
      <point x="130" y="298" type="line" smooth="no"/>
    </contour>
    <contour>
      <point x="157" y="189" type="line" smooth="no"/>
      <point x="156" y="187" type="line" smooth="no"/>
      <point x="159" y="184" type="line" smooth="no"/>
      <point x="159" y="185" type="line" smooth="no"/>
    </contour>
  </outline>
</glyph>
<glyph name="zero" format="1">
  <advance width="655"/>
  <unicode hex="0030"/>
  <outline>
    <contour>
      <point x="598" y="624" type="qcurve" smooth="no"/>
      <point x="600" y="597"/>
      <point x="592" y="543"/>
      <point x="577" y="489"/>
      <point x="560" y="436"/>
      <point x="553" y="409" type="qcurve" smooth="yes"/>
      <point x="502" y="211" type="line" smooth="yes"/>
      <point x="496" y="188"/>
      <point x="480" y="142"/>
      <point x="456" y="101"/>
      <point x="421" y="67"/>
      <point x="397" y="56" type="qcurve" smooth="yes"/>
      <point x="362" y="41"/>
      <point x="286" y="26"/>
      <point x="211" y="30"/>
      <point x="140" y="55"/>
      <point x="110" y="81" type="qcurve" smooth="no"/>
      <point x="84" y="112"/>
      <point x="70" y="135"/>
      <point x="65" y="160"/>
      <point x="70" y="172" type="qcurve" smooth="no"/>
      <point x="64" y="196"/>
      <point x="74" y="223" type="qcurve" smooth="no"/>
      <point x="92" y="308"/>
      <point x="137" y="467"/>
      <point x="153" y="554" type="qcurve" smooth="no"/>
      <point x="169" y="595"/>
      <point x="223" y="666"/>
      <point x="264" y="689" type="qcurve" smooth="no"/>
      <point x="263" y="691" type="line" smooth="no"/>
      <point x="310" y="720"/>
      <point x="410" y="742"/>
      <point x="459" y="733" type="qcurve" smooth="no"/>
      <point x="463" y="738"/>
      <point x="474" y="731"/>
      <point x="479" y="733" type="qcurve" smooth="no"/>
      <point x="521" y="719"/>
      <point x="586" y="667"/>
    </contour>
    <contour>
      <point x="455" y="718" type="line" smooth="no"/>
      <point x="452" y="719" type="line" smooth="no"/>
      <point x="452" y="717" type="line" smooth="no"/>
      <point x="455" y="716" type="line" smooth="no"/>
    </contour>
    <contour>
      <point x="261" y="661" type="line" smooth="no"/>
      <point x="261" y="659"/>
      <point x="271" y="655"/>
      <point x="264" y="658" type="qcurve" smooth="no"/>
    </contour>
    <contour>
      <point x="407" y="528" type="qcurve" smooth="no"/>
      <point x="400" y="530"/>
      <point x="381" y="544"/>
      <point x="370" y="542" type="qcurve" smooth="yes"/>
      <point x="348" y="539"/>
      <point x="326" y="500"/>
      <point x="321" y="480" type="qcurve" smooth="yes"/>
      <point x="307" y="424"/>
      <point x="284" y="308"/>
      <point x="266" y="250" type="qcurve" smooth="no"/>
      <point x="268" y="244"/>
      <point x="276" y="232"/>
      <point x="283" y="230" type="qcurve" smooth="yes"/>
      <point x="295" y="226"/>
      <point x="328" y="242" type="line" smooth="no"/>
      <point x="384" y="442" type="line" smooth="no"/>
      <point x="386" y="463"/>
      <point x="402" y="508"/>
    </contour>
    <contour>
      <point x="166" y="164" type="line" smooth="no"/>
      <point x="162" y="165" type="line" smooth="no"/>
      <point x="162" y="163" type="line" smooth="no"/>
      <point x="166" y="161" type="line" smooth="no"/>
    </contour>
  </outline>
</glyph>
<glyph name="one" format="1">
  <advance width="495"/>
  <unicode hex="0031"/>
  <outline>
    <contour>
      <point x="384" y="345" type="line" smooth="no"/>
      <point x="337" y="128" type="line" smooth="yes"/>
      <point x="330" y="97"/>
      <point x="319" y="34"/>
      <point x="309" y="5" type="qcurve" smooth="no"/>
      <point x="125" y="1" type="line" smooth="no"/>
      <point x="140" y="107"/>
      <point x="184" y="341"/>
      <point x="200" y="455" type="qcurve" smooth="no"/>
      <point x="184" y="455" type="line" smooth="no"/>
      <point x="43" y="408" type="line" smooth="no"/>
      <point x="56" y="447"/>
      <point x="68" y="530"/>
      <point x="78" y="571" type="qcurve" smooth="no"/>
      <point x="110" y="597"/>
      <point x="176" y="643"/>
      <point x="208" y="669" type="qcurve" smooth="no"/>
      <point x="210" y="667" type="line" smooth="no"/>
      <point x="263" y="714"/>
      <point x="288" y="714" type="qcurve" smooth="yes"/>
      <point x="449" y="714" type="line" smooth="no"/>
    </contour>
    <contour>
      <point x="312" y="10" type="line" smooth="no"/>
      <point x="309" y="10" type="line" smooth="no"/>
      <point x="309" y="15" type="line" smooth="no"/>
      <point x="312" y="15" type="line" smooth="no"/>
    </contour>
  </outline>
</glyph>
<glyph name="two" format="1">
  <advance width="627"/>
  <unicode hex="0032"/>
  <outline>
    <contour>
      <point x="580" y="501" type="qcurve" smooth="yes"/>
      <point x="566" y="460"/>
      <point x="511" y="391"/>
      <point x="382" y="262"/>
      <point x="359" y="225" type="qcurve" smooth="yes"/>
      <point x="351" y="214"/>
      <point x="349" y="188"/>
      <point x="343" y="177" type="qcurve" smooth="no"/>
      <point x="388" y="178"/>
      <point x="524" y="203" type="line" smooth="no"/>
      <point x="511" y="159"/>
      <point x="497" y="66"/>
      <point x="488" y="21" type="qcurve" smooth="no"/>
      <point x="443" y="22"/>
      <point x="319" y="19" type="line" smooth="yes"/>
      <point x="91" y="16" type="line" smooth="no"/>
      <point x="65" y="14" type="line" smooth="no"/>
      <point x="68" y="55"/>
      <point x="93" y="133"/>
      <point x="113" y="167" type="qcurve" smooth="no"/>
      <point x="114" y="175"/>
      <point x="125" y="191"/>
      <point x="127" y="200" type="qcurve" smooth="no"/>
      <point x="219" y="356"/>
      <point x="379" y="469" type="qcurve" smooth="no"/>
      <point x="394" y="483"/>
      <point x="419" y="518"/>
      <point x="412" y="539" type="qcurve" smooth="yes"/>
      <point x="408" y="550"/>
      <point x="388" y="560"/>
      <point x="379" y="565" type="qcurve" smooth="no"/>
      <point x="367" y="568"/>
      <point x="347" y="562"/>
      <point x="329" y="549"/>
      <point x="313" y="532"/>
      <point x="307" y="524" type="qcurve" smooth="no"/>
      <point x="300" y="512"/>
      <point x="291" y="488"/>
      <point x="287" y="474" type="qcurve" smooth="no"/>
      <point x="183" y="530"/>
      <point x="149" y="552" type="qcurve" smooth="no"/>
      <point x="152" y="583"/>
      <point x="182" y="639"/>
      <point x="225" y="684"/>
      <point x="277" y="716"/>
      <point x="303" y="724" type="qcurve" smooth="yes"/>
      <point x="317" y="728"/>
      <point x="338" y="729"/>
      <point x="353" y="734" type="qcurve" smooth="no"/>
      <point x="398" y="739"/>
      <point x="487" y="723"/>
      <point x="522" y="694" type="qcurve" smooth="no"/>
      <point x="524" y="696" type="line" smooth="no"/>
      <point x="546" y="680"/>
      <point x="576" y="635"/>
      <point x="590" y="582"/>
      <point x="589" y="527"/>
    </contour>
    <contour>
      <point x="488" y="679" type="line" smooth="no"/>
      <point x="484" y="654" type="line" smooth="no"/>
    </contour>
    <contour>
      <point x="348" y="705" type="line" smooth="no"/>
      <point x="346" y="705" type="line" smooth="no"/>
      <point x="346" y="701" type="line" smooth="no"/>
      <point x="348" y="701" type="line" smooth="no"/>
    </contour>
    <contour>
      <point x="421" y="342" type="line" smooth="no"/>
      <point x="421" y="338" type="line" smooth="no"/>
      <point x="422" y="338" type="line" smooth="no"/>
      <point x="423" y="342" type="line" smooth="no"/>
    </contour>
  </outline>
</glyph>
<glyph name="three" format="1">
  <advance width="645"/>
  <unicode hex="0033"/>
  <outline>
    <contour>
      <point x="258" y="719" type="line" smooth="no"/>
      <point x="258" y="723" type="line" smooth="no"/>
      <point x="261" y="723" type="line" smooth="no"/>
      <point x="261" y="719" type="line" smooth="no"/>
    </contour>
    <contour>
      <point x="542" y="726" type="qcurve" smooth="no"/>
      <point x="537" y="686"/>
      <point x="529" y="598"/>
      <point x="526" y="560" type="qcurve" smooth="no"/>
      <point x="462" y="509"/>
      <point x="440" y="495" type="qcurve" smooth="no"/>
      <point x="464" y="487"/>
      <point x="505" y="448"/>
      <point x="507" y="422" type="qcurve" smooth="no"/>
      <point x="474" y="161" type="line" smooth="no"/>
      <point x="469" y="137"/>
      <point x="443" y="92"/>
      <point x="406" y="55"/>
      <point x="361" y="28"/>
      <point x="336" y="23" type="qcurve" smooth="yes"/>
      <point x="309" y="17"/>
      <point x="245" y="9"/>
      <point x="182" y="13"/>
      <point x="125" y="34"/>
      <point x="104" y="57" type="qcurve" smooth="yes"/>
      <point x="86" y="76"/>
      <point x="76" y="124"/>
      <point x="79" y="173"/>
      <point x="88" y="223"/>
      <point x="91" y="246" type="qcurve" smooth="no"/>
      <point x="125" y="251"/>
      <point x="201" y="254"/>
      <point x="237" y="259" type="qcurve" smooth="no"/>
      <point x="235" y="242"/>
      <point x="231" y="204"/>
      <point x="247" y="193" type="qcurve" smooth="no"/>
      <point x="256" y="185"/>
      <point x="275" y="194"/>
      <point x="286" y="194" type="qcurve" smooth="no"/>
      <point x="313" y="219" type="line" smooth="no"/>
      <point x="314" y="234"/>
      <point x="324" y="271"/>
      <point x="330" y="308"/>
      <point x="326" y="342"/>
      <point x="314" y="356" type="qcurve" smooth="no"/>
      <point x="292" y="367"/>
      <point x="245" y="358"/>
      <point x="227" y="344" type="qcurve" smooth="no"/>
      <point x="118" y="429" type="line" smooth="no"/>
      <point x="153" y="461"/>
      <point x="227" y="521"/>
      <point x="262" y="556" type="qcurve" smooth="no"/>
      <point x="158" y="544"/>
      <point x="123" y="541" type="qcurve" smooth="no"/>
      <point x="128" y="590" type="line" smooth="no"/>
      <point x="130" y="587" type="line" smooth="no"/>
      <point x="131" y="589"/>
      <point x="133" y="589"/>
      <point x="132" y="591" type="qcurve" smooth="yes"/>
      <point x="126" y="597"/>
      <point x="134" y="618"/>
      <point x="133" y="629" type="qcurve" smooth="no"/>
      <point x="138" y="652"/>
      <point x="139" y="696"/>
      <point x="148" y="716" type="qcurve" smooth="no"/>
      <point x="148" y="720"/>
      <point x="144" y="718" type="qcurve" smooth="no"/>
      <point x="362" y="722" type="line" smooth="yes"/>
      <point x="406" y="723"/>
      <point x="494" y="728"/>
    </contour>
    <contour>
      <point x="529" y="613" type="line" smooth="no"/>
      <point x="526" y="613" type="line" smooth="no"/>
      <point x="526" y="609" type="line" smooth="no"/>
      <point x="529" y="609" type="line" smooth="no"/>
    </contour>
    <contour>
      <point x="440" y="491" type="line" smooth="no"/>
      <point x="438" y="489" type="line" smooth="no"/>
    </contour>
  </outline>
</glyph>
<glyph name="four" format="1">
  <advance width="618"/>
  <unicode hex="0034"/>
  <outline>
    <contour>
      <point x="518" y="573" type="line" smooth="no"/>
      <point x="477" y="291" type="line" smooth="yes"/>
      <point x="476" y="289"/>
      <point x="478" y="285"/>
      <point x="476" y="284" type="qcurve" smooth="no"/>
      <point x="479" y="280" type="line" smooth="no"/>
      <point x="538" y="280" type="line" smooth="no"/>
      <point x="521" y="171" type="line" smooth="no"/>
      <point x="456" y="172" type="line" smooth="no"/>
      <point x="446" y="138"/>
      <point x="436" y="67"/>
      <point x="428" y="32" type="qcurve" smooth="no"/>
      <point x="380" y="30"/>
      <point x="293" y="30"/>
      <point x="246" y="25" type="qcurve" smooth="no"/>
      <point x="266" y="157" type="line" smooth="no"/>
      <point x="262" y="161" type="line" smooth="no"/>
      <point x="200" y="162"/>
      <point x="87" y="156"/>
      <point x="25" y="154" type="qcurve" smooth="no"/>
      <point x="25" y="193"/>
      <point x="40" y="271"/>
      <point x="45" y="310" type="qcurve" smooth="no"/>
      <point x="245" y="575" type="line" smooth="yes"/>
      <point x="342" y="704" type="line" smooth="no"/>
      <point x="384" y="703" type="line" smooth="no"/>
      <point x="544" y="714" type="line" smooth="no"/>
    </contour>
    <contour>
      <point x="507" y="679" type="line" smooth="no"/>
      <point x="505" y="679" type="line" smooth="no"/>
      <point x="505" y="675" type="line" smooth="no"/>
      <point x="508" y="675" type="line" smooth="no"/>
    </contour>
    <contour>
      <point x="479" y="541" type="line" smooth="no"/>
      <point x="478" y="541" type="line" smooth="no"/>
      <point x="478" y="537" type="line" smooth="no"/>
      <point x="480" y="537" type="line" smooth="no"/>
    </contour>
    <contour>
      <point x="210" y="300" type="line" smooth="no"/>
      <point x="224" y="298"/>
      <point x="270" y="303"/>
      <point x="288" y="303" type="qcurve" smooth="no"/>
      <point x="289" y="332"/>
      <point x="298" y="389"/>
      <point x="300" y="415" type="qcurve" smooth="no"/>
    </contour>
    <contour>
      <point x="415" y="135" type="line" smooth="no"/>
      <point x="413" y="135" type="line" smooth="no"/>
      <point x="414" y="132" type="line" smooth="no"/>
      <point x="415" y="132" type="line" smooth="no"/>
    </contour>
  </outline>
</glyph>
<glyph name="six" format="1">
  <advance width="618"/>
  <unicode hex="0036"/>
  <outline>
    <contour>
      <point x="419" y="487" type="line" smooth="no"/>
      <point x="421" y="498"/>
      <point x="422" y="523"/>
      <point x="418" y="535" type="qcurve" smooth="no"/>
      <point x="398" y="552"/>
      <point x="390" y="554" type="qcurve" smooth="no"/>
      <point x="374" y="555"/>
      <point x="347" y="543"/>
      <point x="339" y="529" type="qcurve" smooth="no"/>
      <point x="328" y="498"/>
      <point x="316" y="399" type="line" smooth="no"/>
      <point x="342" y="405"/>
      <point x="400" y="409"/>
      <point x="455" y="400"/>
      <point x="505" y="373"/>
      <point x="523" y="348" type="qcurve" smooth="no"/>
      <point x="533" y="330"/>
      <point x="536" y="290"/>
      <point x="529" y="249"/>
      <point x="519" y="207"/>
      <point x="517" y="188" type="qcurve" smooth="no"/>
      <point x="511" y="164"/>
      <point x="485" y="118"/>
      <point x="448" y="79"/>
      <point x="403" y="49"/>
      <point x="380" y="41" type="qcurve" smooth="yes"/>
      <point x="325" y="22"/>
      <point x="201" y="30"/>
      <point x="151" y="56" type="qcurve" smooth="no"/>
      <point x="118" y="85"/>
      <point x="96" y="168"/>
      <point x="106" y="210" type="qcurve" smooth="yes"/>
      <point x="107" y="212"/>
      <point x="111" y="226"/>
      <point x="110" y="233" type="qcurve" smooth="no"/>
      <point x="119" y="276"/>
      <point x="144" y="457"/>
      <point x="160" y="548"/>
      <point x="173" y="592" type="qcurve" smooth="no"/>
      <point x="193" y="631"/>
      <point x="253" y="683"/>
      <point x="325" y="712"/>
      <point x="407" y="719"/>
      <point x="449" y="713" type="qcurve" smooth="yes"/>
      <point x="481" y="708"/>
      <point x="540" y="671"/>
      <point x="558" y="642" type="qcurve" smooth="yes"/>
      <point x="568" y="626"/>
      <point x="574" y="591"/>
      <point x="573" y="554"/>
      <point x="567" y="517"/>
      <point x="566" y="499" type="qcurve" smooth="no"/>
    </contour>
    <contour>
      <point x="317" y="397" type="line" smooth="no"/>
      <point x="316" y="397" type="line" smooth="no"/>
      <point x="316" y="402" type="line" smooth="no"/>
      <point x="317" y="402" type="line" smooth="no"/>
    </contour>
    <contour>
      <point x="316" y="386" type="line" smooth="no"/>
      <point x="313" y="386" type="line" smooth="no"/>
      <point x="313" y="378" type="line" smooth="no"/>
      <point x="316" y="378" type="line" smooth="no"/>
    </contour>
    <contour>
      <point x="384" y="274" type="qcurve" smooth="no"/>
      <point x="374" y="292"/>
      <point x="359" y="304" type="qcurve" smooth="no"/>
      <point x="344" y="307"/>
      <point x="314" y="309"/>
      <point x="300" y="301" type="qcurve" smooth="no"/>
      <point x="300" y="289"/>
      <point x="292" y="266"/>
      <point x="288" y="242"/>
      <point x="289" y="218"/>
      <point x="298" y="207" type="qcurve" smooth="no"/>
      <point x="309" y="198"/>
      <point x="342" y="196"/>
      <point x="356" y="201" type="qcurve" smooth="no"/>
      <point x="394" y="227"/>
    </contour>
    <contour>
      <point x="445" y="108" type="line" smooth="no"/>
      <point x="443" y="108" type="line" smooth="no"/>
      <point x="443" y="103" type="line" smooth="no"/>
      <point x="445" y="103" type="line" smooth="no"/>
    </contour>
  </outline>
</glyph>
<glyph name="seven" format="1">
  <advance width="626"/>
  <unicode hex="0037"/>
  <outline>
    <contour>
      <point x="532" y="741" type="qcurve" smooth="no"/>
      <point x="533" y="705"/>
      <point x="533" y="632"/>
      <point x="526" y="561"/>
      <point x="509" y="492"/>
      <point x="493" y="461" type="qcurve" smooth="yes"/>
      <point x="395" y="267" type="line" smooth="yes"/>
      <point x="368" y="213"/>
      <point x="341" y="97"/>
      <point x="332" y="37" type="qcurve" smooth="no"/>
      <point x="101" y="35" type="line" smooth="no"/>
      <point x="103" y="43"/>
      <point x="106" y="57"/>
      <point x="108" y="65" type="qcurve" smooth="yes"/>
      <point x="130" y="158"/>
      <point x="220" y="334"/>
      <point x="275" y="412" type="qcurve" smooth="no"/>
      <point x="304" y="469"/>
      <point x="320" y="508"/>
      <point x="329" y="549"/>
      <point x="328" y="571" type="qcurve" smooth="no"/>
      <point x="317" y="575" type="line" smooth="no"/>
      <point x="160" y="566"/>
      <point x="114" y="568" type="qcurve" smooth="no"/>
      <point x="147" y="694"/>
      <point x="162" y="736" type="qcurve" smooth="no"/>
      <point x="161" y="743" type="line" smooth="no"/>
      <point x="257" y="745"/>
      <point x="438" y="744"/>
    </contour>
    <contour>
      <point x="373" y="419" type="line" smooth="no"/>
      <point x="370" y="418" type="line" smooth="no"/>
      <point x="371" y="414" type="line" smooth="no"/>
      <point x="373" y="414" type="line" smooth="no"/>
    </contour>
    <contour>
      <point x="280" y="413" type="line" smooth="no"/>
      <point x="278" y="413" type="line" smooth="no"/>
      <point x="277" y="417" type="line" smooth="no"/>
      <point x="280" y="417" type="line" smooth="no"/>
    </contour>
  </outline>
</glyph>
<glyph name="semicolon" format="1">
  <advance width="316"/>
  <unicode hex="003b"/>
  <unicode hex="037e"/>
  <outline>
    <contour>
      <point x="279" y="515" type="qcurve" smooth="no"/>
      <point x="276" y="480"/>
      <point x="271" y="431"/>
      <point x="270" y="411" type="qcurve" smooth="yes"/>
      <point x="265" y="347" type="line" smooth="no"/>
      <point x="218" y="345"/>
      <point x="132" y="346"/>
      <point x="85" y="345" type="qcurve" smooth="no"/>
      <point x="90" y="453" type="line" smooth="no"/>
      <point x="92" y="453" type="line" smooth="no"/>
      <point x="92" y="466"/>
      <point x="94" y="493"/>
      <point x="96" y="505" type="qcurve" smooth="no"/>
      <point x="143" y="512"/>
      <point x="230" y="509"/>
    </contour>
    <contour>
      <point x="235" y="-48" type="line" smooth="no"/>
      <point x="201" y="-113" type="line" smooth="no"/>
      <point x="149" y="-120" type="line" smooth="no"/>
      <point x="112" y="-116" type="line" smooth="no"/>
      <point x="136" y="-1" type="line" smooth="no"/>
      <point x="113" y="-2"/>
      <point x="42" y="-2" type="line" smooth="no"/>
      <point x="46" y="106" type="line" smooth="no"/>
      <point x="49" y="106" type="line" smooth="no"/>
      <point x="49" y="119"/>
      <point x="51" y="145"/>
      <point x="53" y="158" type="qcurve" smooth="no"/>
      <point x="100" y="165"/>
      <point x="187" y="162"/>
      <point x="236" y="168" type="qcurve" smooth="no"/>
      <point x="234" y="143" type="line" smooth="no"/>
      <point x="252" y="48" type="line" smooth="no"/>
    </contour>
  </outline>
</glyph>
<glyph name="equal" format="1">
  <advance width="731"/>
  <unicode hex="003d"/>
  <outline>
    <contour>
      <point x="124" y="347" type="line" smooth="no"/>
      <point x="124" y="480" type="line" smooth="no"/>
      <point x="709" y="480" type="line" smooth="no"/>
      <point x="709" y="347" type="line" smooth="no"/>
    </contour>
    <contour>
      <point x="124" y="117" type="line" smooth="no"/>
      <point x="124" y="250" type="line" smooth="no"/>
      <point x="709" y="250" type="line" smooth="no"/>
      <point x="709" y="117" type="line" smooth="no"/>
    </contour>
  </outline>
</glyph>
<glyph name="greater" format="1">
  <advance width="702"/>
  <unicode hex="003e"/>
  <outline>
    <contour>
      <point x="129" y="-8" type="line" smooth="no"/>
      <point x="129" y="138" type="line" smooth="no"/>
      <point x="520" y="298" type="line" smooth="no"/>
      <point x="129" y="458" type="line" smooth="no"/>
      <point x="129" y="605" type="line" smooth="no"/>
      <point x="704" y="367" type="line" smooth="no"/>
      <point x="704" y="230" type="line" smooth="no"/>
    </contour>
  </outline>
</glyph>
<glyph name="B" format="1">
  <advance width="647"/>
  <unicode hex="0042"/>
  <outline>
    <contour>
      <point x="606" y="149" type="qcurve" smooth="yes"/>
      <point x="602" y="127"/>
      <point x="580" y="86"/>
      <point x="549" y="52"/>
      <point x="511" y="25"/>
      <point x="490" y="18" type="qcurve" smooth="no"/>
      <point x="378" y="10"/>
      <point x="159" y="-15"/>
      <point x="50" y="-23" type="qcurve" smooth="no"/>
      <point x="56" y="56"/>
      <point x="107" y="498"/>
      <point x="115" y="578" type="qcurve" smooth="yes"/>
      <point x="118" y="608"/>
      <point x="123" y="672"/>
      <point x="129" y="695" type="qcurve" smooth="no"/>
      <point x="131" y="694" type="line" smooth="no"/>
      <point x="132" y="700" type="line" smooth="no"/>
      <point x="137" y="701"/>
      <point x="163" y="702"/>
      <point x="171" y="700" type="qcurve" smooth="no"/>
      <point x="175" y="704" type="line" smooth="no"/>
      <point x="200" y="705"/>
      <point x="250" y="709"/>
      <point x="273" y="708" type="qcurve" smooth="no"/>
      <point x="271" y="710" type="line" smooth="no"/>
      <point x="279" y="708"/>
      <point x="303" y="713"/>
      <point x="315" y="713" type="qcurve" smooth="no"/>
      <point x="311" y="707"/>
      <point x="314" y="697"/>
      <point x="315" y="692" type="qcurve" smooth="no"/>
      <point x="320" y="698"/>
      <point x="317" y="708"/>
      <point x="321" y="715" type="qcurve" smooth="no"/>
      <point x="349" y="715" type="line" smooth="no"/>
      <point x="346" y="714" type="line" smooth="no"/>
      <point x="348" y="711"/>
      <point x="350" y="711"/>
      <point x="354" y="717"/>
      <point x="356" y="716" type="qcurve" smooth="no"/>
      <point x="379" y="718"/>
      <point x="427" y="721"/>
      <point x="449" y="723" type="qcurve" smooth="no"/>
      <point x="454" y="721"/>
      <point x="468" y="720"/>
      <point x="474" y="718" type="qcurve" smooth="no"/>
      <point x="487" y="711"/>
      <point x="522" y="700"/>
      <point x="537" y="689" type="qcurve" smooth="yes"/>
      <point x="579" y="660"/>
      <point x="609" y="568"/>
      <point x="595" y="518" type="qcurve" smooth="yes"/>
      <point x="584" y="479"/>
      <point x="532" y="413"/>
      <point x="502" y="386" type="qcurve" smooth="no"/>
      <point x="529" y="364"/>
      <point x="573" y="311"/>
      <point x="602" y="251"/>
      <point x="613" y="185"/>
    </contour>
    <contour>
      <point x="312" y="709" type="line" smooth="no"/>
      <point x="311" y="709" type="line" smooth="no"/>
      <point x="311" y="713" type="line" smooth="no"/>
      <point x="312" y="713" type="line" smooth="no"/>
    </contour>
    <contour>
      <point x="317" y="686" type="line" smooth="no"/>
      <point x="315" y="686" type="line" smooth="no"/>
      <point x="315" y="680" type="line" smooth="no"/>
      <point x="317" y="679" type="line" smooth="no"/>
    </contour>
    <contour>
      <point x="499" y="384" type="line" smooth="no"/>
      <point x="493" y="379" type="line" smooth="no"/>
    </contour>
    <contour>
      <point x="364" y="483" type="line" smooth="no"/>
      <point x="362" y="483" type="line" smooth="no"/>
      <point x="362" y="479" type="line" smooth="no"/>
      <point x="364" y="479" type="line" smooth="no"/>
    </contour>
    <contour>
      <point x="143" y="698" type="line" smooth="no"/>
      <point x="141" y="698" type="line" smooth="no"/>
      <point x="142" y="702" type="line" smooth="no"/>
      <point x="143" y="702" type="line" smooth="no"/>
    </contour>
    <contour>
      <point x="373" y="531" type="qcurve" smooth="no"/>
      <point x="359" y="545"/>
      <point x="320" y="541"/>
      <point x="302" y="537" type="qcurve" smooth="no"/>
      <point x="295" y="438" type="line" smooth="no"/>
      <point x="336" y="464"/>
      <point x="360" y="486"/>
      <point x="375" y="513"/>
    </contour>
    <contour>
      <point x="375" y="237" type="qcurve" smooth="no"/>
      <point x="368" y="249"/>
      <point x="343" y="260"/>
      <point x="315" y="263"/>
      <point x="286" y="259"/>
      <point x="276" y="258" type="qcurve" smooth="no"/>
      <point x="275" y="241"/>
      <point x="273" y="199"/>
      <point x="270" y="180" type="qcurve" smooth="no"/>
      <point x="281" y="182"/>
      <point x="304" y="180"/>
      <point x="311" y="183" type="qcurve" smooth="no"/>
      <point x="314" y="179"/>
      <point x="321" y="187"/>
      <point x="323" y="185" type="qcurve" smooth="yes"/>
      <point x="328" y="182"/>
      <point x="340" y="191"/>
      <point x="347" y="189" type="qcurve" smooth="no"/>
      <point x="345" y="191" type="line" smooth="no"/>
      <point x="353" y="195" type="line" smooth="no"/>
      <point x="356" y="198"/>
      <point x="361" y="198" type="qcurve" smooth="no"/>
      <point x="365" y="207"/>
      <point x="377" y="223"/>
    </contour>
    <contour>
      <point x="343" y="190" type="line" smooth="no"/>
      <point x="343" y="194" type="line" smooth="no"/>
      <point x="345" y="194" type="line" smooth="no"/>
      <point x="345" y="190" type="line" smooth="no"/>
    </contour>
  </outline>
</glyph>
<glyph name="E" format="1">
  <advance width="566"/>
  <unicode hex="0045"/>
  <outline>
    <contour>
      <point x="536" y="700" type="line" smooth="no"/>
      <point x="531" y="660"/>
      <point x="516" y="580"/>
      <point x="508" y="542" type="qcurve" smooth="no"/>
      <point x="470" y="540"/>
      <point x="396" y="541"/>
      <point x="358" y="537" type="qcurve" smooth="no"/>
      <point x="352" y="509"/>
      <point x="344" y="454"/>
      <point x="337" y="426" type="qcurve" smooth="no"/>
      <point x="338" y="423"/>
      <point x="344" y="422"/>
      <point x="352" y="423"/>
      <point x="359" y="424"/>
      <point x="361" y="421" type="qcurve" smooth="no"/>
      <point x="365" y="424"/>
      <point x="372" y="424" type="qcurve" smooth="yes"/>
      <point x="401" y="423"/>
      <point x="459" y="427"/>
      <point x="489" y="426" type="qcurve" smooth="no"/>
      <point x="481" y="389"/>
      <point x="459" y="278" type="line" smooth="no"/>
      <point x="421" y="277"/>
      <point x="345" y="278"/>
      <point x="307" y="275" type="qcurve" smooth="no"/>
      <point x="301" y="247"/>
      <point x="293" y="189"/>
      <point x="290" y="163" type="qcurve" smooth="no"/>
      <point x="331" y="164"/>
      <point x="398" y="162"/>
      <point x="439" y="164" type="qcurve" smooth="no"/>
      <point x="429" y="121"/>
      <point x="414" y="41"/>
      <point x="405" y="-1" type="qcurve" smooth="no"/>
      <point x="324" y="-4"/>
      <point x="166" y="3"/>
      <point x="85" y="2" type="qcurve" smooth="no"/>
      <point x="91" y="49" type="line" smooth="no"/>
      <point x="194" y="607" type="line" smooth="no"/>
      <point x="210" y="703" type="line" smooth="no"/>
      <point x="236" y="705" type="line" smooth="no"/>
      <point x="515" y="699" type="line" smooth="no"/>
    </contour>
    <contour>
      <point x="351" y="541" type="line" smooth="no"/>
      <point x="350" y="539" type="line" smooth="no"/>
      <point x="353" y="537" type="line" smooth="no"/>
      <point x="354" y="539" type="line" smooth="no"/>
    </contour>
    <contour>
      <point x="279" y="482" type="line" smooth="no"/>
      <point x="278" y="480" type="line" smooth="no"/>
      <point x="281" y="478" type="line" smooth="no"/>
      <point x="283" y="480" type="line" smooth="no"/>
    </contour>
    <contour>
      <point x="334" y="424" type="line" smooth="no"/>
      <point x="307" y="422" type="line" smooth="no"/>
    </contour>
    <contour>
      <point x="187" y="289" type="qcurve" smooth="no"/>
      <point x="185" y="291"/>
      <point x="186" y="295"/>
      <point x="184" y="296" type="qcurve" smooth="no"/>
      <point x="182" y="293"/>
    </contour>
    <contour>
      <point x="279" y="165" type="line" smooth="no"/>
      <point x="278" y="163" type="line" smooth="no"/>
      <point x="282" y="165" type="line" smooth="no"/>
    </contour>
  </outline>
</glyph>
<glyph name="F" format="1">
  <advance width="539"/>
  <unicode hex="0046"/>
  <outline>
    <contour>
      <point x="469" y="546" type="line" smooth="no"/>
      <point x="348" y="537"/>
      <point x="308" y="535" type="qcurve" smooth="no"/>
      <point x="304" y="513"/>
      <point x="298" y="438" type="line" smooth="no"/>
      <point x="329" y="436"/>
      <point x="396" y="445"/>
      <point x="428" y="447" type="qcurve" smooth="no"/>
      <point x="430" y="445" type="line" smooth="no"/>
      <point x="435" y="447"/>
      <point x="451" y="450"/>
      <point x="459" y="450" type="qcurve" smooth="no"/>
      <point x="455" y="408"/>
      <point x="450" y="324"/>
      <point x="447" y="284" type="qcurve" smooth="no"/>
      <point x="278" y="270" type="line" smooth="no"/>
      <point x="252" y="50" type="line" smooth="no"/>
      <point x="245" y="-11" type="line" smooth="no"/>
      <point x="199" y="-13"/>
      <point x="109" y="-22"/>
      <point x="64" y="-27" type="qcurve" smooth="no"/>
      <point x="70" y="54"/>
      <point x="98" y="305" type="line" smooth="yes"/>
      <point x="118" y="501" type="line" smooth="yes"/>
      <point x="123" y="552"/>
      <point x="129" y="646"/>
      <point x="137" y="699" type="qcurve" smooth="no"/>
      <point x="376" y="709" type="line" smooth="no"/>
      <point x="483" y="715" type="line" smooth="no"/>
      <point x="485" y="710" type="line" smooth="no"/>
    </contour>
    <contour>
      <point x="453" y="672" type="line" smooth="no"/>
      <point x="452" y="668" type="line" smooth="no"/>
      <point x="453" y="668" type="line" smooth="no"/>
      <point x="455" y="672" type="line" smooth="no"/>
    </contour>
    <contour>
      <point x="254" y="703" type="line" smooth="no"/>
      <point x="253" y="699" type="line" smooth="no"/>
      <point x="255" y="699" type="line" smooth="no"/>
      <point x="256" y="703" type="line" smooth="no"/>
    </contour>
    <contour>
      <point x="263" y="646" type="qcurve" smooth="no"/>
      <point x="261" y="647"/>
      <point x="255" y="648"/>
      <point x="254" y="645" type="qcurve" smooth="no"/>
      <point x="257" y="643"/>
      <point x="262" y="645"/>
    </contour>
    <contour>
      <point x="222" y="129" type="line" smooth="no"/>
      <point x="221" y="126" type="line" smooth="no"/>
      <point x="223" y="125" type="line" smooth="no"/>
      <point x="224" y="129" type="line" smooth="no"/>
    </contour>
    <contour>
      <point x="231" y="44" type="line" smooth="no"/>
      <point x="230" y="40" type="line" smooth="no"/>
      <point x="232" y="39" type="line" smooth="no"/>
      <point x="233" y="43" type="line" smooth="no"/>
    </contour>
    <contour>
      <point x="242" y="4" type="line" smooth="no"/>
      <point x="241" y="0" type="line" smooth="no"/>
      <point x="244" y="0" type="line" smooth="no"/>
      <point x="245" y="3" type="line" smooth="no"/>
    </contour>
    <contour>
      <point x="211" y="7" type="line" smooth="no"/>
      <point x="210" y="3" type="line" smooth="no"/>
      <point x="212" y="2" type="line" smooth="no"/>
      <point x="213" y="6" type="line" smooth="no"/>
    </contour>
  </outline>
</glyph>
<glyph name="H" format="1">
  <advance width="636"/>
  <unicode hex="0048"/>
  <outline>
    <contour>
      <point x="549" y="403" type="line" smooth="no"/>
      <point x="477" y="-17" type="line" smooth="no"/>
      <point x="313" y="-16" type="line" smooth="no"/>
      <point x="313" y="-13" type="line" smooth="no"/>
      <point x="312" y="-13"/>
      <point x="311" y="-12"/>
      <point x="309" y="-13" type="qcurve" smooth="no"/>
      <point x="308" y="-16" type="line" smooth="no"/>
      <point x="310" y="-14"/>
      <point x="308" y="-12"/>
      <point x="307" y="-10" type="qcurve" smooth="no"/>
      <point x="305" y="-9" type="line" smooth="no"/>
      <point x="303" y="-15" type="line" smooth="no"/>
      <point x="308" y="2" type="line" smooth="no"/>
      <point x="305" y="2" type="line" smooth="no"/>
      <point x="309" y="13"/>
      <point x="309" y="37"/>
      <point x="315" y="47" type="qcurve" smooth="no"/>
      <point x="317" y="46" type="line" smooth="no"/>
      <point x="315" y="56" type="line" smooth="no"/>
      <point x="343" y="231" type="line" smooth="no"/>
      <point x="321" y="234"/>
      <point x="273" y="233"/>
      <point x="250" y="231" type="qcurve" smooth="no"/>
      <point x="239" y="172"/>
      <point x="219" y="46"/>
      <point x="206" y="-17" type="qcurve" smooth="no"/>
      <point x="167" y="-15"/>
      <point x="50" y="-18" type="line" smooth="no"/>
      <point x="47" y="-14"/>
      <point x="40" y="-18"/>
      <point x="37" y="-18" type="qcurve" smooth="no"/>
      <point x="125" y="488" type="line" smooth="no"/>
      <point x="157" y="698" type="line" smooth="no"/>
      <point x="334" y="699" type="line" smooth="no"/>
      <point x="291" y="438" type="line" smooth="no"/>
      <point x="287" y="435"/>
      <point x="286" y="429"/>
      <point x="288" y="421"/>
      <point x="289" y="414"/>
      <point x="288" y="410" type="qcurve" smooth="no"/>
      <point x="307" y="408"/>
      <point x="362" y="408" type="line" smooth="no"/>
      <point x="370" y="422"/>
      <point x="373" y="452"/>
      <point x="376" y="466" type="qcurve" smooth="no"/>
      <point x="378" y="487"/>
      <point x="383" y="505" type="qcurve" smooth="no"/>
      <point x="382" y="509" type="line" smooth="no"/>
      <point x="385" y="509" type="line" smooth="no"/>
      <point x="387" y="523"/>
      <point x="387" y="549"/>
      <point x="394" y="563" type="qcurve" smooth="no"/>
      <point x="391" y="563" type="line" smooth="no"/>
      <point x="394" y="564"/>
      <point x="394" y="577"/>
      <point x="395" y="584"/>
      <point x="398" y="587" type="qcurve" smooth="no"/>
      <point x="395" y="587" type="line" smooth="no"/>
      <point x="403" y="612" type="line" smooth="no"/>
      <point x="401" y="612" type="line" smooth="no"/>
      <point x="403" y="627"/>
      <point x="413" y="658"/>
      <point x="411" y="671" type="qcurve" smooth="no"/>
      <point x="414" y="679"/>
      <point x="416" y="691"/>
      <point x="418" y="699" type="qcurve" smooth="no"/>
      <point x="598" y="700" type="line" smooth="no"/>
    </contour>
    <contour>
      <point x="320" y="654" type="line" smooth="no"/>
      <point x="317" y="652" type="line" smooth="no"/>
      <point x="317" y="650" type="line" smooth="no"/>
      <point x="321" y="652" type="line" smooth="no"/>
    </contour>
    <contour>
      <point x="238" y="621" type="line" smooth="no"/>
      <point x="233" y="618" type="line" smooth="no"/>
      <point x="238" y="617" type="line" smooth="no"/>
    </contour>
    <contour>
      <point x="68" y="138" type="line" smooth="no"/>
      <point x="66" y="136" type="line" smooth="no"/>
      <point x="66" y="135" type="line" smooth="no"/>
      <point x="69" y="136" type="line" smooth="no"/>
    </contour>
  </outline>
</glyph>
<glyph name="I" format="1">
  <advance width="359"/>
  <unicode hex="0049"/>
  <outline>
    <contour>
      <point x="307" y="731" type="qcurve" smooth="no"/>
      <point x="305" y="683"/>
      <point x="287" y="538" type="line" smooth="yes"/>
      <point x="223" y="19" type="line" smooth="no"/>
      <point x="95" y="13"/>
      <point x="53" y="12" type="qcurve" smooth="no"/>
      <point x="56" y="54"/>
      <point x="63" y="141"/>
      <point x="72" y="181" type="qcurve" smooth="no"/>
      <point x="70" y="193" type="line" smooth="no"/>
      <point x="125" y="670" type="line" smooth="no"/>
      <point x="127" y="670" type="line" smooth="no"/>
      <point x="127" y="681"/>
      <point x="129" y="706"/>
      <point x="131" y="717" type="qcurve" smooth="no"/>
      <point x="173" y="723"/>
      <point x="262" y="726"/>
    </contour>
    <contour>
      <point x="162" y="338" type="line" smooth="no"/>
      <point x="161" y="336" type="line" smooth="no"/>
      <point x="166" y="332" type="line" smooth="no"/>
      <point x="167" y="334" type="line" smooth="no"/>
    </contour>
    <contour>
      <point x="208" y="244" type="line" smooth="no"/>
      <point x="207" y="242" type="line" smooth="no"/>
      <point x="210" y="240" type="line" smooth="no"/>
      <point x="211" y="241" type="line" smooth="no"/>
    </contour>
  </outline>
</glyph>
<glyph name="R" format="1">
  <advance width="670"/>
  <unicode hex="0052"/>
  <outline>
    <contour>
      <point x="621" y="19" type="line" smooth="no"/>
      <point x="587" y="20"/>
      <point x="505" y="13"/>
      <point x="471" y="18" type="qcurve" smooth="no"/>
      <point x="469" y="19" type="line" smooth="no"/>
      <point x="461" y="14"/>
      <point x="432" y="17"/>
      <point x="419" y="16" type="qcurve" smooth="no"/>
      <point x="409" y="25" type="line" smooth="no"/>
      <point x="356" y="192"/>
      <point x="336" y="246" type="qcurve" smooth="no"/>
      <point x="325" y="248"/>
      <point x="299" y="241"/>
      <point x="288" y="236" type="qcurve" smooth="no"/>
      <point x="252" y="18" type="line" smooth="no"/>
      <point x="248" y="14" type="line" smooth="no"/>
      <point x="197" y="13"/>
      <point x="93" y="14"/>
      <point x="45" y="12" type="qcurve" smooth="no"/>
      <point x="94" y="277" type="line" smooth="yes"/>
      <point x="151" y="582" type="line" smooth="yes"/>
      <point x="178" y="718" type="line" smooth="no"/>
      <point x="374" y="728" type="line" smooth="yes"/>
      <point x="403" y="729"/>
      <point x="467" y="728"/>
      <point x="527" y="713"/>
      <point x="578" y="678"/>
      <point x="595" y="646" type="qcurve" smooth="yes"/>
      <point x="627" y="584"/>
      <point x="614" y="457"/>
      <point x="580" y="400" type="qcurve" smooth="no"/>
      <point x="540" y="345"/>
      <point x="489" y="302" type="qcurve" smooth="no"/>
      <point x="495" y="276" type="line" smooth="no"/>
      <point x="598" y="68" type="line" smooth="yes"/>
    </contour>
    <contour>
      <point x="402" y="541" type="qcurve" smooth="no"/>
      <point x="390" y="553"/>
      <point x="360" y="549"/>
      <point x="342" y="547" type="qcurve" smooth="no"/>
      <point x="333" y="511"/>
      <point x="321" y="433"/>
      <point x="316" y="395" type="qcurve" smooth="no"/>
      <point x="332" y="402"/>
      <point x="359" y="420"/>
      <point x="372" y="431" type="qcurve" smooth="no"/>
      <point x="399" y="469"/>
      <point x="409" y="497"/>
      <point x="409" y="526"/>
    </contour>
    <contour>
      <point x="547" y="120" type="line" smooth="no"/>
      <point x="548" y="118" type="line" smooth="no"/>
      <point x="551" y="121" type="line" smooth="no"/>
    </contour>
    <contour>
      <point x="567" y="102" type="line" smooth="no"/>
      <point x="564" y="102" type="line" smooth="no"/>
      <point x="565" y="100" type="line" smooth="no"/>
      <point x="568" y="101" type="line" smooth="no"/>
    </contour>
    <contour>
      <point x="437" y="142" type="line" smooth="no"/>
      <point x="434" y="142" type="line" smooth="no"/>
      <point x="434" y="140" type="line" smooth="no"/>
      <point x="438" y="141" type="line" smooth="no"/>
    </contour>
  </outline>
</glyph>
<glyph name="T" format="1">
  <advance width="587"/>
  <unicode hex="0054"/>
  <outline>
    <contour>
      <point x="546" y="737" type="line" smooth="no"/>
      <point x="541" y="693"/>
      <point x="530" y="618"/>
      <point x="522" y="575" type="qcurve" smooth="no"/>
      <point x="497" y="569"/>
      <point x="440" y="573"/>
      <point x="411" y="569" type="qcurve" smooth="no"/>
      <point x="354" y="188"/>
      <point x="329" y="55" type="qcurve" smooth="no"/>
      <point x="327" y="29" type="line" smooth="no"/>
      <point x="133" y="22" type="line" smooth="no"/>
      <point x="131" y="29" type="line" smooth="no"/>
      <point x="183" y="395" type="line" smooth="yes"/>
      <point x="201" y="517"/>
      <point x="208" y="559" type="qcurve" smooth="no"/>
      <point x="173" y="560"/>
      <point x="101" y="556"/>
      <point x="65" y="556" type="qcurve" smooth="no"/>
      <point x="74" y="599"/>
      <point x="88" y="685"/>
      <point x="96" y="728" type="qcurve" smooth="no"/>
      <point x="190" y="728"/>
      <point x="386" y="740"/>
      <point x="480" y="738" type="qcurve" smooth="yes"/>
    </contour>
    <contour>
      <point x="520" y="590" type="line" smooth="no"/>
      <point x="516" y="589" type="line" smooth="no"/>
      <point x="517" y="587" type="line" smooth="no"/>
      <point x="521" y="588" type="line" smooth="no"/>
    </contour>
    <contour>
      <point x="512" y="575" type="line" smooth="no"/>
      <point x="514" y="575" type="line" smooth="no"/>
      <point x="516" y="579"/>
      <point x="515" y="580" type="qcurve" smooth="no"/>
    </contour>
    <contour>
      <point x="332" y="571" type="line" smooth="no"/>
      <point x="330" y="564" type="line" smooth="no"/>
    </contour>
    <contour>
      <point x="252" y="495" type="line" smooth="no"/>
      <point x="254" y="495" type="line" smooth="no"/>
      <point x="254" y="496"/>
      <point x="255" y="498"/>
      <point x="255" y="500" type="qcurve" smooth="no"/>
    </contour>
  </outline>
</glyph>
<glyph name="asciicircum" format="1">
  <advance width="781"/>
  <unicode hex="005e"/>
  <outline>
    <contour>
      <point x="733" y="438" type="line" smooth="no"/>
      <point x="499" y="592" type="line" smooth="no"/>
      <point x="266" y="438" type="line" smooth="no"/>
      <point x="201" y="438" type="line" smooth="no"/>
      <point x="429" y="714" type="line" smooth="no"/>
      <point x="570" y="714" type="line" smooth="no"/>
      <point x="797" y="438" type="line" smooth="no"/>
    </contour>
  </outline>
</glyph>
<glyph name="a" format="1">
  <advance width="721"/>
  <unicode hex="0061"/>
  <outline>
    <contour>
      <point x="489" y="-7" type="line" smooth="no"/>
      <point x="478" y="110" type="line" smooth="no"/>
      <point x="436" y="108"/>
      <point x="352" y="115"/>
      <point x="314" y="114" type="qcurve" smooth="no"/>
      <point x="294" y="85"/>
      <point x="247" y="-10" type="line" smooth="no"/>
      <point x="192" y="-13"/>
      <point x="80" y="-9"/>
      <point x="23" y="-11" type="qcurve" smooth="no"/>
      <point x="236" y="385"/>
      <point x="316" y="520" type="qcurve" smooth="no"/>
      <point x="313" y="521" type="line" smooth="no"/>
      <point x="341" y="568"/>
      <point x="389" y="661"/>
      <point x="418" y="706" type="qcurve" smooth="no"/>
      <point x="416" y="708" type="line" smooth="no"/>
      <point x="472" y="710"/>
      <point x="578" y="706"/>
      <point x="638" y="709" type="qcurve" smooth="no"/>
      <point x="649" y="577"/>
      <point x="662" y="331"/>
      <point x="672" y="200" type="qcurve" smooth="yes"/>
      <point x="687" y="-2" type="line" smooth="no"/>
    </contour>
    <contour>
      <point x="508" y="707" type="line" smooth="no"/>
      <point x="506" y="706" type="line" smooth="no"/>
      <point x="507" y="703" type="line" smooth="no"/>
      <point x="508" y="703" type="line" smooth="no"/>
    </contour>
    <contour>
      <point x="436" y="706" type="line" smooth="no"/>
      <point x="434" y="706" type="line" smooth="no"/>
      <point x="434" y="702" type="line" smooth="no"/>
      <point x="436" y="702" type="line" smooth="no"/>
    </contour>
    <contour>
      <point x="323" y="524" type="line" smooth="no"/>
      <point x="321" y="524" type="line" smooth="no"/>
      <point x="321" y="520" type="line" smooth="no"/>
      <point x="323" y="520" type="line" smooth="no"/>
    </contour>
    <contour>
      <point x="468" y="258" type="line" smooth="no"/>
      <point x="465" y="289"/>
      <point x="466" y="351"/>
      <point x="458" y="380" type="qcurve" smooth="no"/>
      <point x="453" y="382"/>
      <point x="460" y="387"/>
      <point x="459" y="389" type="qcurve" smooth="no"/>
      <point x="402" y="268" type="line" smooth="no"/>
      <point x="402" y="260" type="line" smooth="no"/>
      <point x="420" y="258"/>
    </contour>
    <contour>
      <point x="540" y="53" type="line" smooth="no"/>
      <point x="538" y="52" type="line" smooth="no"/>
      <point x="539" y="48" type="line" smooth="no"/>
      <point x="540" y="49" type="line" smooth="no"/>
    </contour>
    <contour>
      <point x="248" y="116" type="line" smooth="no"/>
      <point x="247" y="115" type="line" smooth="no"/>
      <point x="247" y="111" type="line" smooth="no"/>
      <point x="249" y="112" type="line" smooth="no"/>
    </contour>
  </outline>
</glyph>
<glyph name="b" format="1">
  <advance width="677"/>
  <unicode hex="0062"/>
  <outline>
    <contour>
      <point x="651" y="606" type="qcurve" smooth="yes"/>
      <point x="658" y="573"/>
      <point x="644" y="513"/>
      <point x="612" y="458"/>
      <point x="566" y="410"/>
      <point x="542" y="390" type="qcurve" smooth="no"/>
      <point x="549" y="377"/>
      <point x="567" y="368"/>
      <point x="578" y="357" type="qcurve" smooth="no"/>
      <point x="577" y="354" type="line" smooth="no"/>
      <point x="582" y="356"/>
      <point x="583" y="346"/>
      <point x="585" y="345" type="qcurve" smooth="no"/>
      <point x="585" y="342"/>
      <point x="588" y="342" type="qcurve" smooth="no"/>
      <point x="589" y="345" type="line" smooth="no"/>
      <point x="607" y="320"/>
      <point x="634" y="264"/>
      <point x="645" y="204"/>
      <point x="637" y="143"/>
      <point x="621" y="113" type="qcurve" smooth="no"/>
      <point x="598" y="84"/>
      <point x="540" y="37"/>
      <point x="498" y="28" type="qcurve" smooth="no"/>
      <point x="68" y="25" type="line" smooth="no"/>
      <point x="178" y="621" type="line" smooth="no"/>
      <point x="199" y="737" type="line" smooth="no"/>
      <point x="208" y="741" type="line" smooth="no"/>
      <point x="389" y="742" type="line" smooth="no"/>
      <point x="395" y="739" type="line" smooth="no"/>
      <point x="398" y="744" type="line" smooth="no"/>
      <point x="420" y="741"/>
      <point x="466" y="746"/>
      <point x="512" y="748"/>
      <point x="558" y="740"/>
      <point x="579" y="724" type="qcurve" smooth="yes"/>
      <point x="608" y="702"/>
      <point x="644" y="646"/>
      <point x="649" y="612" type="qcurve" smooth="no"/>
      <point x="648" y="611"/>
      <point x="646" y="608" type="qcurve" smooth="no"/>
      <point x="647" y="604"/>
      <point x="651" y="608"/>
    </contour>
    <contour>
      <point x="342" y="636" type="line" smooth="no"/>
      <point x="338" y="635" type="line" smooth="no"/>
      <point x="339" y="633" type="line" smooth="no"/>
      <point x="343" y="635" type="line" smooth="no"/>
    </contour>
    <contour>
      <point x="431" y="513" type="qcurve" smooth="no"/>
      <point x="437" y="527"/>
      <point x="427" y="555"/>
      <point x="417" y="565" type="qcurve" smooth="no"/>
      <point x="404" y="573"/>
      <point x="375" y="573"/>
      <point x="364" y="568" type="qcurve" smooth="no"/>
      <point x="349" y="467" type="line" smooth="no"/>
      <point x="369" y="474"/>
      <point x="417" y="494"/>
    </contour>
    <contour>
      <point x="405" y="237" type="qcurve" smooth="yes"/>
      <point x="416" y="248"/>
      <point x="412" y="276"/>
      <point x="404" y="288" type="qcurve" smooth="no"/>
      <point x="396" y="298"/>
      <point x="377" y="305"/>
      <point x="355" y="305"/>
      <point x="333" y="301"/>
      <point x="323" y="300" type="qcurve" smooth="no"/>
      <point x="322" y="283"/>
      <point x="308" y="234"/>
      <point x="311" y="214" type="qcurve" smooth="no"/>
      <point x="323" y="218"/>
      <point x="372" y="220"/>
      <point x="395" y="227"/>
    </contour>
    <contour>
      <point x="170" y="441" type="line" smooth="no"/>
      <point x="166" y="439" type="line" smooth="no"/>
      <point x="167" y="437" type="line" smooth="no"/>
      <point x="171" y="439" type="line" smooth="no"/>
    </contour>
  </outline>
</glyph>
<glyph name="k" format="1">
  <advance width="611"/>
  <unicode hex="006b"/>
  <outline>
    <contour>
      <point x="585" y="681" type="qcurve" smooth="no"/>
      <point x="577" y="603"/>
      <point x="548" y="454"/>
      <point x="528" y="375" type="qcurve" smooth="no"/>
      <point x="528" y="370"/>
      <point x="520" y="356"/>
      <point x="518" y="348" type="qcurve" smooth="no"/>
      <point x="502" y="325"/>
      <point x="467" y="286"/>
      <point x="444" y="271" type="qcurve" smooth="no"/>
      <point x="433" y="266"/>
      <point x="416" y="250"/>
      <point x="403" y="248" type="qcurve" smooth="no"/>
      <point x="423" y="192"/>
      <point x="473" y="85"/>
      <point x="491" y="29" type="qcurve" smooth="no"/>
      <point x="448" y="31"/>
      <point x="366" y="30"/>
      <point x="323" y="32" type="qcurve" smooth="no"/>
      <point x="305" y="70"/>
      <point x="291" y="152"/>
      <point x="275" y="190" type="qcurve" smooth="no"/>
      <point x="263" y="183" type="line" smooth="yes"/>
      <point x="257" y="180"/>
      <point x="238" y="172"/>
      <point x="225" y="167" type="qcurve" smooth="no"/>
      <point x="220" y="137"/>
      <point x="204" y="79"/>
      <point x="201" y="46" type="qcurve" smooth="yes"/>
      <point x="200" y="45"/>
      <point x="200" y="43" type="qcurve" smooth="yes"/>
      <point x="199" y="40"/>
      <point x="200" y="36" type="qcurve" smooth="no"/>
      <point x="160" y="38"/>
      <point x="71" y="36"/>
      <point x="30" y="36" type="qcurve" smooth="no"/>
      <point x="45" y="120"/>
      <point x="101" y="365" type="line" smooth="yes"/>
      <point x="111" y="408"/>
      <point x="162" y="660"/>
      <point x="175" y="702" type="qcurve" smooth="no"/>
      <point x="215" y="697"/>
      <point x="278" y="696"/>
      <point x="319" y="696" type="qcurve" smooth="yes"/>
      <point x="340" y="696" type="line" smooth="no"/>
      <point x="312" y="599"/>
      <point x="278" y="400"/>
      <point x="255" y="298" type="qcurve" smooth="no"/>
      <point x="255" y="293"/>
      <point x="266" y="294"/>
      <point x="269" y="295" type="qcurve" smooth="yes"/>
      <point x="293" y="298"/>
      <point x="330" y="328"/>
      <point x="339" y="342" type="qcurve" smooth="yes"/>
      <point x="355" y="364"/>
      <point x="374" y="417"/>
      <point x="380" y="443" type="qcurve" smooth="no"/>
      <point x="389" y="466"/>
      <point x="403" y="537" type="line" smooth="yes"/>
      <point x="424" y="647"/>
      <point x="430" y="691" type="qcurve" smooth="no"/>
      <point x="507" y="691" type="line" smooth="yes"/>
      <point x="515" y="691"/>
      <point x="533" y="688"/>
      <point x="541" y="688" type="qcurve" smooth="yes"/>
      <point x="546" y="688"/>
      <point x="552" y="687" type="qcurve" smooth="yes"/>
      <point x="562" y="685"/>
    </contour>
  </outline>
</glyph>
<glyph name="o" format="1">
  <advance width="567"/>
  <unicode hex="006f"/>
  <outline>
    <contour>
      <point x="505" y="669" type="qcurve" smooth="no"/>
      <point x="527" y="628"/>
      <point x="530" y="543"/>
      <point x="515" y="457"/>
      <point x="492" y="370"/>
      <point x="488" y="328" type="qcurve" smooth="yes"/>
      <point x="484" y="289"/>
      <point x="468" y="213"/>
      <point x="438" y="144"/>
      <point x="390" y="84"/>
      <point x="356" y="63" type="qcurve" smooth="yes"/>
      <point x="323" y="42"/>
      <point x="250" y="17"/>
      <point x="177" y="14"/>
      <point x="106" y="34"/>
      <point x="75" y="59" type="qcurve" smooth="yes"/>
      <point x="43" y="84"/>
      <point x="32" y="149"/>
      <point x="45" y="219"/>
      <point x="70" y="292"/>
      <point x="73" y="326" type="qcurve" smooth="no"/>
      <point x="71" y="331" type="line" smooth="no"/>
      <point x="82" y="365"/>
      <point x="104" y="521"/>
      <point x="120" y="597"/>
      <point x="153" y="662"/>
      <point x="208" y="712"/>
      <point x="252" y="725" type="qcurve" smooth="yes"/>
      <point x="282" y="734"/>
      <point x="352" y="738"/>
      <point x="421" y="725"/>
      <point x="483" y="694"/>
    </contour>
    <contour>
      <point x="344" y="471" type="line" smooth="no"/>
      <point x="340" y="472" type="line" smooth="no"/>
      <point x="340" y="470" type="line" smooth="no"/>
      <point x="344" y="469" type="line" smooth="no"/>
    </contour>
    <contour>
      <point x="346" y="537" type="line" smooth="no"/>
      <point x="343" y="546"/>
      <point x="320" y="548"/>
      <point x="311" y="549" type="qcurve" smooth="no"/>
      <point x="294" y="546"/>
      <point x="269" y="519"/>
      <point x="273" y="500" type="qcurve" smooth="no"/>
      <point x="232" y="283"/>
      <point x="221" y="211" type="qcurve" smooth="no"/>
      <point x="240" y="211"/>
      <point x="281" y="225"/>
      <point x="294" y="242" type="qcurve" smooth="no"/>
      <point x="317" y="312"/>
      <point x="335" y="452"/>
      <point x="348" y="522" type="qcurve" smooth="no"/>
    </contour>
    <contour>
      <point x="184" y="478" type="line" smooth="no"/>
      <point x="181" y="479"/>
      <point x="179" y="477" type="qcurve" smooth="no"/>
      <point x="183" y="474" type="line" smooth="no"/>
    </contour>
    <contour>
      <point x="104" y="335" type="line" smooth="no"/>
      <point x="104" y="333" type="line" smooth="no"/>
      <point x="107" y="332" type="line" smooth="no"/>
      <point x="108" y="334" type="line" smooth="no"/>
    </contour>
    <contour>
      <point x="260" y="89" type="line" smooth="no"/>
      <point x="256" y="90" type="line" smooth="no"/>
      <point x="256" y="88" type="line" smooth="no"/>
      <point x="260" y="87" type="line" smooth="no"/>
    </contour>
  </outline>
</glyph>
<glyph name="y" format="1">
  <advance width="659"/>
  <unicode hex="0079"/>
  <outline>
    <contour>
      <point x="650" y="724" type="line" smooth="no"/>
      <point x="413" y="327" type="line" smooth="no"/>
      <point x="396" y="66" type="line" smooth="no"/>
      <point x="392" y="17" type="line" smooth="no"/>
      <point x="339" y="12"/>
      <point x="233" y="8"/>
      <point x="179" y="7" type="qcurve" smooth="no"/>
      <point x="223" y="401" type="line" smooth="no"/>
      <point x="71" y="677" type="line" smooth="no"/>
      <point x="54" y="709" type="line" smooth="no"/>
      <point x="105" y="717"/>
      <point x="210" y="715"/>
      <point x="263" y="717" type="qcurve" smooth="no"/>
      <point x="280" y="680"/>
      <point x="310" y="599"/>
      <point x="330" y="563" type="qcurve" smooth="no"/>
      <point x="401" y="679"/>
      <point x="423" y="720" type="qcurve" smooth="no"/>
      <point x="428" y="715"/>
      <point x="438" y="724"/>
      <point x="445" y="720" type="qcurve" smooth="no"/>
    </contour>
    <contour>
      <point x="329" y="558" type="line" smooth="no"/>
      <point x="328" y="555" type="line" smooth="no"/>
      <point x="329" y="555" type="line" smooth="no"/>
      <point x="331" y="558" type="line" smooth="no"/>
    </contour>
    <contour>
      <point x="198" y="657" type="line" smooth="no"/>
      <point x="199" y="654" type="line" smooth="no"/>
      <point x="202" y="652" type="line" smooth="no"/>
    </contour>
    <contour>
      <point x="240" y="535" type="line" smooth="no"/>
      <point x="238" y="531" type="line" smooth="no"/>
      <point x="239" y="530" type="line" smooth="no"/>
      <point x="241" y="534" type="line" smooth="no"/>
    </contour>
    <contour>
      <point x="386" y="316" type="line" smooth="no"/>
      <point x="385" y="312" type="line" smooth="no"/>
      <point x="386" y="312" type="line" smooth="no"/>
      <point x="388" y="315" type="line" smooth="no"/>
    </contour>
    <contour>
      <point x="272" y="317" type="line" smooth="no"/>
      <point x="270" y="313" type="line" smooth="no"/>
      <point x="271" y="313" type="line" smooth="no"/>
      <point x="273" y="316" type="line" smooth="no"/>
    </contour>
  </outline>
</glyph>
<glyph name="bar" format="1">
  <advance width="370"/>
  <unicode hex="007c"/>
  <outline>
    <contour>
      <point x="182" y="-236" type="line" smooth="no"/>
      <point x="182" y="764" type="line" smooth="no"/>
      <point x="319" y="764" type="line" smooth="no"/>
      <point x="319" y="-236" type="line" smooth="no"/>
    </contour>
  </outline>
</glyph>
<glyph name="brokenbar" format="1">
  <advance width="364"/>
  <unicode hex="00a6"/>
  <outline>
    <contour>
      <point x="182" y="329" type="line" smooth="no"/>
      <point x="182" y="699" type="line" smooth="no"/>
      <point x="319" y="699" type="line" smooth="no"/>
      <point x="319" y="329" type="line" smooth="no"/>
    </contour>
    <contour>
      <point x="182" y="-171" type="line" smooth="no"/>
      <point x="182" y="199" type="line" smooth="no"/>
      <point x="319" y="199" type="line" smooth="no"/>
      <point x="319" y="-171" type="line" smooth="no"/>
    </contour>
  </outline>
</glyph>
<glyph name="logicalnot" format="1">
  <advance width="756"/>
  <unicode hex="00ac"/>
  <outline>
    <contour>
      <point x="576" y="179" type="line" smooth="no"/>
      <point x="576" y="294" type="line" smooth="no"/>
      <point x="124" y="294" type="line" smooth="no"/>
      <point x="124" y="424" type="line" smooth="no"/>
      <point x="709" y="424" type="line" smooth="no"/>
      <point x="709" y="179" type="line" smooth="no"/>
    </contour>
  </outline>
</glyph>
<glyph name="degree" format="1">
  <advance width="301"/>
  <unicode hex="00b0"/>
  <outline>
    <contour>
      <point x="322" y="561" type="qcurve" smooth="yes"/>
      <point x="322" y="529"/>
      <point x="297" y="472"/>
      <point x="255" y="429"/>
      <point x="197" y="404"/>
      <point x="164" y="404" type="qcurve" smooth="yes"/>
      <point x="131" y="404"/>
      <point x="74" y="428"/>
      <point x="32" y="471"/>
      <point x="7" y="528"/>
      <point x="7" y="561" type="qcurve" smooth="yes"/>
      <point x="7" y="594"/>
      <point x="32" y="652"/>
      <point x="75" y="694"/>
      <point x="133" y="719"/>
      <point x="165" y="719" type="qcurve" smooth="yes"/>
      <point x="198" y="719"/>
      <point x="255" y="694"/>
      <point x="297" y="652"/>
      <point x="322" y="594"/>
    </contour>
    <contour>
      <point x="239" y="562" type="qcurve" smooth="yes"/>
      <point x="239" y="592"/>
      <point x="195" y="636"/>
      <point x="164" y="636" type="qcurve" smooth="yes"/>
      <point x="134" y="636"/>
      <point x="91" y="593"/>
      <point x="91" y="562" type="qcurve" smooth="yes"/>
      <point x="91" y="531"/>
      <point x="133" y="487"/>
      <point x="165" y="487" type="qcurve" smooth="yes"/>
      <point x="196" y="487"/>
      <point x="239" y="532"/>
    </contour>
  </outline>
</glyph>
<glyph name="plusminus" format="1">
  <advance width="728"/>
  <unicode hex="00b1"/>
  <outline>
    <contour>
      <point x="485" y="332" type="line" smooth="no"/>
      <point x="485" y="181" type="line" smooth="no"/>
      <point x="348" y="181" type="line" smooth="no"/>
      <point x="348" y="332" type="line" smooth="no"/>
      <point x="124" y="332" type="line" smooth="no"/>
      <point x="124" y="465" type="line" smooth="no"/>
      <point x="348" y="465" type="line" smooth="no"/>
      <point x="348" y="616" type="line" smooth="no"/>
      <point x="485" y="616" type="line" smooth="no"/>
      <point x="485" y="465" type="line" smooth="no"/>
      <point x="709" y="465" type="line" smooth="no"/>
      <point x="709" y="332" type="line" smooth="no"/>
    </contour>
    <contour>
      <point x="124" y="-20" type="line" smooth="no"/>
      <point x="124" y="113" type="line" smooth="no"/>
      <point x="709" y="113" type="line" smooth="no"/>
      <point x="709" y="-20" type="line" smooth="no"/>
    </contour>
  </outline>
</glyph>
<glyph name="acute" format="1">
  <advance width="463"/>
  <unicode hex="00b4"/>
  <outline>
    <contour>
      <point x="496" y="671" type="qcurve" smooth="yes"/>
      <point x="496" y="658"/>
      <point x="482" y="647"/>
      <point x="461" y="642" type="qcurve" smooth="yes"/>
      <point x="277" y="598" type="line" smooth="yes"/>
      <point x="265" y="595"/>
      <point x="248" y="593"/>
      <point x="243" y="593" type="qcurve" smooth="yes"/>
      <point x="224" y="593"/>
      <point x="204" y="624"/>
      <point x="204" y="647" type="qcurve" smooth="yes"/>
      <point x="204" y="661"/>
      <point x="228" y="675"/>
      <point x="254" y="684" type="qcurve" smooth="yes"/>
      <point x="421" y="744" type="line" smooth="yes"/>
      <point x="446" y="752"/>
      <point x="455" y="752" type="qcurve" smooth="yes"/>
      <point x="469" y="752"/>
      <point x="496" y="703"/>
    </contour>
  </outline>
</glyph>
<glyph name="periodcentered" format="1">
  <advance width="295"/>
  <unicode hex="00b7"/>
  <unicode hex="2219"/>
  <outline>
    <contour>
      <point x="271" y="309" type="qcurve" smooth="yes"/>
      <point x="271" y="284"/>
      <point x="253" y="240"/>
      <point x="221" y="208"/>
      <point x="177" y="190"/>
      <point x="152" y="190" type="qcurve" smooth="yes"/>
      <point x="127" y="190"/>
      <point x="83" y="208"/>
      <point x="51" y="240"/>
      <point x="33" y="284"/>
      <point x="33" y="309" type="qcurve" smooth="yes"/>
      <point x="33" y="334"/>
      <point x="51" y="378"/>
      <point x="83" y="410"/>
      <point x="127" y="428"/>
      <point x="152" y="428" type="qcurve" smooth="yes"/>
      <point x="177" y="428"/>
      <point x="221" y="410"/>
      <point x="253" y="378"/>
      <point x="271" y="334"/>
    </contour>
  </outline>
</glyph>
<glyph name="Ccedilla" format="1">
  <advance width="571"/>
  <unicode hex="00c7"/>
  <outline>
    <contour>
      <point x="547" y="611" type="qcurve" smooth="yes"/>
      <point x="548" y="580"/>
      <point x="532" y="485" type="line" smooth="no"/>
      <point x="498" y="483"/>
      <point x="420" y="488"/>
      <point x="384" y="485" type="qcurve" smooth="no"/>
      <point x="385" y="500"/>
      <point x="391" y="533"/>
      <point x="391" y="565"/>
      <point x="381" y="592"/>
      <point x="368" y="602" type="qcurve" smooth="no"/>
      <point x="364" y="608"/>
      <point x="348" y="610"/>
      <point x="342" y="610" type="qcurve" smooth="no"/>
      <point x="312" y="600"/>
      <point x="290" y="547"/>
      <point x="281" y="519" type="qcurve" smooth="no"/>
      <point x="267" y="447"/>
      <point x="243" y="308"/>
      <point x="235" y="231" type="qcurve" smooth="no"/>
      <point x="235" y="220"/>
      <point x="245" y="198"/>
      <point x="253" y="192" type="qcurve" smooth="no"/>
      <point x="264" y="187"/>
      <point x="289" y="183"/>
      <point x="299" y="191" type="qcurve" smooth="no"/>
      <point x="315" y="201"/>
      <point x="333" y="232"/>
      <point x="344" y="268"/>
      <point x="350" y="306"/>
      <point x="354" y="324" type="qcurve" smooth="no"/>
      <point x="391" y="327"/>
      <point x="465" y="318"/>
      <point x="502" y="320" type="qcurve" smooth="no"/>
      <point x="497" y="271"/>
      <point x="468" y="180"/>
      <point x="417" y="105"/>
      <point x="345" y="47"/>
      <point x="297" y="31" type="qcurve" smooth="yes"/>
      <point x="289" y="29"/>
      <point x="267" y="25"/>
      <point x="272" y="11" type="qcurve" smooth="yes"/>
      <point x="276" y="-3"/>
      <point x="271" y="-33"/>
      <point x="259" y="-59"/>
      <point x="242" y="-80"/>
      <point x="232" y="-86" type="qcurve" smooth="yes"/>
      <point x="209" y="-99" type="line" smooth="no"/>
      <point x="207" y="-97" type="line" smooth="no"/>
      <point x="202" y="-100" type="line" smooth="yes"/>
      <point x="204" y="-98"/>
      <point x="201" y="-95"/>
      <point x="200" y="-93" type="qcurve" smooth="no"/>
      <point x="202" y="-92" type="line" smooth="no"/>
      <point x="194" y="-78"/>
      <point x="188" y="-46"/>
      <point x="173" y="-37" type="qcurve" smooth="no"/>
      <point x="160" y="-31"/>
      <point x="136" y="-36"/>
      <point x="124" y="-38" type="qcurve" smooth="no"/>
      <point x="119" y="-21"/>
      <point x="131" y="37" type="line" smooth="no"/>
      <point x="136" y="40" type="line" smooth="no"/>
      <point x="107" y="54"/>
      <point x="61" y="101"/>
      <point x="48" y="130" type="qcurve" smooth="no"/>
      <point x="40" y="159"/>
      <point x="45" y="219"/>
      <point x="45" y="248" type="qcurve" smooth="no"/>
      <point x="76" y="452" type="line" smooth="yes"/>
      <point x="91" y="557"/>
      <point x="112" y="623"/>
      <point x="147" y="681"/>
      <point x="178" y="702" type="qcurve" smooth="yes"/>
      <point x="209" y="723"/>
      <point x="278" y="755"/>
      <point x="348" y="769"/>
      <point x="418" y="762"/>
      <point x="451" y="744" type="qcurve" smooth="yes"/>
      <point x="469" y="734"/>
      <point x="503" y="707"/>
      <point x="530" y="672"/>
      <point x="547" y="633"/>
    </contour>
    <contour>
      <point x="212" y="-100" type="line" smooth="no"/>
      <point x="210" y="-100" type="line" smooth="no"/>
      <point x="211" y="-96" type="line" smooth="no"/>
      <point x="213" y="-96" type="line" smooth="no"/>
    </contour>
    <contour>
      <point x="479" y="711" type="line" smooth="no"/>
      <point x="477" y="715" type="line" smooth="no"/>
    </contour>
    <contour>
      <point x="415" y="637" type="line" smooth="no"/>
      <point x="414" y="633" type="line" smooth="no"/>
      <point x="415" y="633" type="line" smooth="no"/>
      <point x="416" y="637" type="line" smooth="no"/>
    </contour>
    <contour>
      <point x="272" y="544" type="line" smooth="no"/>
      <point x="272" y="546"/>
      <point x="267" y="546"/>
      <point x="265" y="547" type="qcurve" smooth="yes"/>
      <point x="263" y="547"/>
      <point x="262" y="543"/>
      <point x="262" y="542" type="qcurve" smooth="no"/>
      <point x="264" y="542"/>
      <point x="264" y="540"/>
      <point x="266" y="539" type="qcurve" smooth="no"/>
    </contour>
    <contour>
      <point x="207" y="-91" type="line" smooth="no"/>
      <point x="202" y="-94" type="line" smooth="no"/>
      <point x="203" y="-96" type="line" smooth="no"/>
      <point x="202" y="-94" type="line" smooth="no"/>
    </contour>
  </outline>
</glyph>
<glyph name="circumflex" format="1">
  <advance width="404"/>
  <unicode hex="02c6"/>
  <outline>
    <contour>
      <point x="433" y="592" type="qcurve" smooth="yes"/>
      <point x="433" y="583"/>
      <point x="412" y="578"/>
      <point x="391" y="578" type="qcurve" smooth="yes"/>
      <point x="380" y="578" type="line" smooth="yes"/>
      <point x="365" y="578"/>
      <point x="346" y="581"/>
      <point x="341" y="588" type="qcurve" smooth="yes"/>
      <point x="335" y="596"/>
      <point x="311" y="636"/>
      <point x="294" y="671" type="qcurve" smooth="no"/>
      <point x="239" y="605"/>
      <point x="224" y="592" type="qcurve" smooth="yes"/>
      <point x="212" y="582"/>
      <point x="190" y="577"/>
      <point x="177" y="577" type="qcurve" smooth="yes"/>
      <point x="153" y="577" type="line" smooth="yes"/>
      <point x="135" y="577"/>
      <point x="116" y="586"/>
      <point x="116" y="591" type="qcurve" smooth="yes"/>
      <point x="116" y="596"/>
      <point x="129" y="612"/>
      <point x="140" y="624" type="qcurve" smooth="yes"/>
      <point x="242" y="731" type="line" smooth="yes"/>
      <point x="251" y="741"/>
      <point x="274" y="745"/>
      <point x="291" y="745" type="qcurve" smooth="yes"/>
      <point x="300" y="745" type="line" smooth="yes"/>
      <point x="317" y="745"/>
      <point x="338" y="743"/>
      <point x="350" y="737"/>
      <point x="357" y="728"/>
      <point x="361" y="721" type="qcurve" smooth="yes"/>
      <point x="425" y="610" type="line" smooth="yes"/>
      <point x="427" y="605"/>
      <point x="433" y="598"/>
    </contour>
  </outline>
</glyph>
<glyph name="dotaccent" format="1">
  <advance width="361"/>
  <unicode hex="02d9"/>
  <outline>
    <contour>
      <point x="387" y="671" type="qcurve" smooth="yes"/>
      <point x="387" y="635"/>
      <point x="343" y="589"/>
      <point x="311" y="589" type="qcurve" smooth="yes"/>
      <point x="284" y="589"/>
      <point x="252" y="623"/>
      <point x="252" y="651" type="qcurve" smooth="yes"/>
      <point x="252" y="667"/>
      <point x="264" y="698"/>
      <point x="285" y="720"/>
      <point x="313" y="734"/>
      <point x="329" y="734" type="qcurve" smooth="yes"/>
      <point x="355" y="734"/>
      <point x="387" y="700"/>
    </contour>
  </outline>
</glyph>
<glyph name="ring" format="1">
  <advance width="429"/>
  <unicode hex="02da"/>
  <outline>
    <contour>
      <point x="460" y="713" type="qcurve" smooth="yes"/>
      <point x="460" y="684"/>
      <point x="438" y="633"/>
      <point x="401" y="595"/>
      <point x="350" y="574"/>
      <point x="320" y="574" type="qcurve" smooth="yes"/>
      <point x="291" y="574"/>
      <point x="240" y="595"/>
      <point x="203" y="633"/>
      <point x="182" y="684"/>
      <point x="182" y="713" type="qcurve" smooth="yes"/>
      <point x="182" y="742"/>
      <point x="203" y="793"/>
      <point x="241" y="830"/>
      <point x="291" y="852"/>
      <point x="320" y="852" type="qcurve" smooth="yes"/>
      <point x="349" y="852"/>
      <point x="400" y="830"/>
      <point x="438" y="793"/>
      <point x="460" y="742"/>
    </contour>
    <contour>
      <point x="377" y="713" type="qcurve" smooth="yes"/>
      <point x="377" y="736"/>
      <point x="344" y="769"/>
      <point x="321" y="769" type="qcurve" smooth="yes"/>
      <point x="298" y="769"/>
      <point x="265" y="736"/>
      <point x="265" y="713" type="qcurve" smooth="yes"/>
      <point x="265" y="690"/>
      <point x="297" y="657"/>
      <point x="321" y="657" type="qcurve" smooth="yes"/>
      <point x="344" y="657"/>
      <point x="377" y="690"/>
    </contour>
  </outline>
</glyph>
<glyph name="ogonek" format="1">
  <advance width="375"/>
  <unicode hex="02db"/>
  <outline>
    <contour>
      <point x="309" y="-145" type="qcurve" smooth="yes"/>
      <point x="309" y="-157"/>
      <point x="290" y="-185"/>
      <point x="258" y="-211"/>
      <point x="215" y="-228"/>
      <point x="191" y="-228" type="qcurve" smooth="yes"/>
      <point x="153" y="-228"/>
      <point x="109" y="-188"/>
      <point x="109" y="-152" type="qcurve" smooth="yes"/>
      <point x="109" y="-108"/>
      <point x="173" y="-29"/>
      <point x="237" y="15" type="qcurve" smooth="no"/>
      <point x="277" y="15" type="line" smooth="no"/>
      <point x="195" y="-54"/>
      <point x="195" y="-113" type="qcurve" smooth="yes"/>
      <point x="195" y="-154"/>
      <point x="230" y="-154" type="qcurve" smooth="yes"/>
      <point x="241" y="-154"/>
      <point x="258" y="-147"/>
      <point x="273" y="-138"/>
      <point x="285" y="-130"/>
      <point x="292" y="-130" type="qcurve" smooth="yes"/>
      <point x="298" y="-130"/>
      <point x="309" y="-139"/>
    </contour>
  </outline>
</glyph>
<glyph name="tilde" format="1">
  <advance width="476"/>
  <unicode hex="02dc"/>
  <outline>
    <contour>
      <point x="510" y="730" type="qcurve" smooth="yes"/>
      <point x="510" y="709"/>
      <point x="491" y="664"/>
      <point x="458" y="626"/>
      <point x="414" y="602"/>
      <point x="389" y="602" type="qcurve" smooth="yes"/>
      <point x="367" y="602"/>
      <point x="324" y="614"/>
      <point x="284" y="629"/>
      <point x="245" y="642"/>
      <point x="227" y="642" type="qcurve" smooth="yes"/>
      <point x="207" y="642"/>
      <point x="186" y="621"/>
      <point x="178" y="602" type="qcurve" smooth="yes"/>
      <point x="175" y="594"/>
      <point x="168" y="587"/>
      <point x="157" y="587" type="qcurve" smooth="yes"/>
      <point x="145" y="587"/>
      <point x="129" y="598"/>
      <point x="129" y="606" type="qcurve" smooth="yes"/>
      <point x="129" y="614"/>
      <point x="141" y="653"/>
      <point x="157" y="678" type="qcurve" smooth="yes"/>
      <point x="196" y="739"/>
      <point x="243" y="739" type="qcurve" smooth="yes"/>
      <point x="260" y="739"/>
      <point x="340" y="711"/>
      <point x="384" y="698"/>
      <point x="408" y="698" type="qcurve" smooth="yes"/>
      <point x="433" y="698"/>
      <point x="453" y="717"/>
      <point x="461" y="735" type="qcurve" smooth="yes"/>
      <point x="464" y="743"/>
      <point x="472" y="750"/>
      <point x="481" y="750" type="qcurve" smooth="yes"/>
      <point x="497" y="750"/>
      <point x="510" y="743"/>
    </contour>
  </outline>
</glyph>
<glyph name="hungarumlaut" format="1">
  <advance width="512"/>
  <unicode hex="02dd"/>
  <outline>
    <contour>
      <point x="549" y="751" type="qcurve" smooth="yes"/>
      <point x="549" y="742"/>
      <point x="533" y="726" type="qcurve" smooth="yes"/>
      <point x="426" y="617" type="line" smooth="yes"/>
      <point x="413" y="604"/>
      <point x="395" y="593"/>
      <point x="391" y="593" type="qcurve" smooth="yes"/>
      <point x="385" y="593"/>
      <point x="371" y="601"/>
      <point x="358" y="613"/>
      <point x="349" y="626"/>
      <point x="349" y="630" type="qcurve" smooth="yes"/>
      <point x="349" y="638"/>
      <point x="360" y="654"/>
      <point x="370" y="667" type="qcurve" smooth="yes"/>
      <point x="459" y="781" type="line" smooth="yes"/>
      <point x="467" y="792"/>
      <point x="479" y="803"/>
      <point x="488" y="803" type="qcurve" smooth="yes"/>
      <point x="496" y="803"/>
      <point x="517" y="790"/>
      <point x="536" y="772"/>
      <point x="549" y="755"/>
    </contour>
    <contour>
      <point x="394" y="755" type="qcurve" smooth="yes"/>
      <point x="394" y="747"/>
      <point x="379" y="731" type="qcurve" smooth="yes"/>
      <point x="275" y="618" type="line" smooth="yes"/>
      <point x="252" y="594"/>
      <point x="240" y="594" type="qcurve" smooth="yes"/>
      <point x="235" y="594"/>
      <point x="220" y="602"/>
      <point x="207" y="613"/>
      <point x="198" y="625"/>
      <point x="198" y="630" type="qcurve" smooth="yes"/>
      <point x="198" y="641"/>
      <point x="218" y="667" type="qcurve" smooth="yes"/>
      <point x="302" y="783" type="line" smooth="yes"/>
      <point x="310" y="794"/>
      <point x="323" y="806"/>
      <point x="331" y="806" type="qcurve" smooth="yes"/>
      <point x="339" y="806"/>
      <point x="361" y="793"/>
      <point x="380" y="777"/>
      <point x="394" y="759"/>
    </contour>
  </outline>
</glyph>
<glyph name="endash" format="1">
  <advance width="536"/>
  <unicode hex="2013"/>
  <outline>
    <contour>
      <point x="491" y="336" type="line" smooth="no"/>
      <point x="483" y="299"/>
      <point x="461" y="188" type="line" smooth="no"/>
      <point x="384" y="188"/>
      <point x="299" y="189"/>
      <point x="204" y="189"/>
      <point x="119" y="190"/>
      <point x="54" y="189"/>
      <point x="41" y="188" type="qcurve" smooth="no"/>
      <point x="41" y="186"/>
      <point x="47" y="206"/>
      <point x="72" y="313"/>
      <point x="79" y="335"/>
      <point x="80" y="333" type="qcurve" smooth="no"/>
      <point x="81" y="334"/>
      <point x="121" y="335"/>
      <point x="167" y="335"/>
      <point x="207" y="334"/>
      <point x="209" y="334" type="qcurve" smooth="yes"/>
      <point x="304" y="334"/>
      <point x="395" y="336"/>
    </contour>
  </outline>
</glyph>
<glyph name="emdash" format="1">
  <advance width="1030"/>
  <unicode hex="2014"/>
  <outline>
    <contour>
      <point x="988" y="328" type="line" smooth="no"/>
      <point x="980" y="291"/>
      <point x="958" y="180" type="line" smooth="no"/>
      <point x="949" y="180"/>
      <point x="864" y="181"/>
      <point x="738" y="182"/>
      <point x="262" y="188"/>
      <point x="135" y="189"/>
      <point x="51" y="189"/>
      <point x="41" y="188" type="qcurve" smooth="no"/>
      <point x="41" y="186"/>
      <point x="47" y="206"/>
      <point x="72" y="313"/>
      <point x="79" y="335"/>
      <point x="80" y="333" type="qcurve" smooth="no"/>
      <point x="81" y="334"/>
      <point x="135" y="334"/>
      <point x="223" y="333"/>
      <point x="334" y="331"/>
      <point x="451" y="330"/>
      <point x="563" y="328"/>
      <point x="651" y="327"/>
      <point x="705" y="326"/>
      <point x="706" y="326" type="qcurve" smooth="yes"/>
      <point x="801" y="326"/>
      <point x="892" y="328"/>
    </contour>
  </outline>
</glyph>
<glyph name="quoteleft" format="1">
  <advance width="270"/>
  <unicode hex="2018"/>
  <outline>
    <contour>
      <point x="235" y="505" type="line" smooth="no"/>
      <point x="232" y="505" type="line" smooth="no"/>
      <point x="232" y="492"/>
      <point x="230" y="465"/>
      <point x="228" y="453" type="qcurve" smooth="no"/>
      <point x="181" y="446"/>
      <point x="94" y="448"/>
      <point x="45" y="443" type="qcurve" smooth="no"/>
      <point x="47" y="468" type="line" smooth="no"/>
      <point x="29" y="563" type="line" smooth="no"/>
      <point x="46" y="659" type="line" smooth="no"/>
      <point x="80" y="724" type="line" smooth="no"/>
      <point x="132" y="731" type="line" smooth="no"/>
      <point x="169" y="727" type="line" smooth="no"/>
      <point x="145" y="612" type="line" smooth="no"/>
      <point x="215" y="612"/>
      <point x="239" y="613" type="qcurve" smooth="no"/>
    </contour>
  </outline>
</glyph>
<glyph name="quoteright" format="1">
  <advance width="272"/>
  <unicode hex="2019"/>
  <outline>
    <contour>
      <point x="227" y="500" type="line" smooth="no"/>
      <point x="193" y="435" type="line" smooth="no"/>
      <point x="141" y="428" type="line" smooth="no"/>
      <point x="104" y="432" type="line" smooth="no"/>
      <point x="128" y="547" type="line" smooth="no"/>
      <point x="105" y="546"/>
      <point x="34" y="546" type="line" smooth="no"/>
      <point x="38" y="654" type="line" smooth="no"/>
      <point x="41" y="654" type="line" smooth="no"/>
      <point x="41" y="667"/>
      <point x="43" y="693"/>
      <point x="45" y="706" type="qcurve" smooth="no"/>
      <point x="92" y="713"/>
      <point x="179" y="710"/>
      <point x="228" y="716" type="qcurve" smooth="no"/>
      <point x="226" y="691" type="line" smooth="no"/>
      <point x="244" y="596" type="line" smooth="no"/>
    </contour>
  </outline>
</glyph>
<glyph name="quotedblleft" format="1">
  <advance width="526"/>
  <unicode hex="201c"/>
  <outline>
    <contour>
      <point x="488" y="505" type="line" smooth="no"/>
      <point x="486" y="505" type="line" smooth="no"/>
      <point x="486" y="492"/>
      <point x="484" y="465"/>
      <point x="481" y="453" type="qcurve" smooth="no"/>
      <point x="434" y="446"/>
      <point x="347" y="448"/>
      <point x="298" y="443" type="qcurve" smooth="no"/>
      <point x="300" y="468" type="line" smooth="no"/>
      <point x="282" y="563" type="line" smooth="no"/>
      <point x="299" y="659" type="line" smooth="no"/>
      <point x="333" y="724" type="line" smooth="no"/>
      <point x="385" y="731" type="line" smooth="no"/>
      <point x="422" y="727" type="line" smooth="no"/>
      <point x="398" y="612" type="line" smooth="no"/>
      <point x="468" y="612"/>
      <point x="492" y="613" type="qcurve" smooth="no"/>
    </contour>
    <contour>
      <point x="234" y="505" type="line" smooth="no"/>
      <point x="234" y="492"/>
      <point x="232" y="465"/>
      <point x="229" y="453" type="qcurve" smooth="no"/>
      <point x="182" y="446"/>
      <point x="95" y="448"/>
      <point x="46" y="443" type="qcurve" smooth="no"/>
      <point x="48" y="468" type="line" smooth="no"/>
      <point x="47" y="569" type="line" smooth="no"/>
      <point x="60" y="656" type="line" smooth="no"/>
      <point x="81" y="724" type="line" smooth="no"/>
      <point x="129" y="719" type="line" smooth="no"/>
      <point x="166" y="715" type="line" smooth="no"/>
      <point x="146" y="612" type="line" smooth="no"/>
      <point x="169" y="612"/>
      <point x="206" y="598"/>
      <point x="230" y="599" type="qcurve" smooth="no"/>
      <point x="236" y="505" type="line" smooth="no"/>
    </contour>
  </outline>
</glyph>
<glyph name="quotedblright" format="1">
  <advance width="543"/>
  <unicode hex="201d"/>
  <outline>
    <contour>
      <point x="478" y="691" type="line" smooth="no"/>
      <point x="479" y="590" type="line" smooth="no"/>
      <point x="466" y="503" type="line" smooth="no"/>
      <point x="445" y="435" type="line" smooth="no"/>
      <point x="397" y="440" type="line" smooth="no"/>
      <point x="360" y="444" type="line" smooth="no"/>
      <point x="380" y="547" type="line" smooth="no"/>
      <point x="357" y="546"/>
      <point x="320" y="561"/>
      <point x="296" y="560" type="qcurve" smooth="no"/>
      <point x="290" y="654" type="line" smooth="no"/>
      <point x="293" y="654" type="line" smooth="no"/>
      <point x="293" y="667"/>
      <point x="295" y="693"/>
      <point x="297" y="706" type="qcurve" smooth="no"/>
      <point x="344" y="713"/>
      <point x="431" y="710"/>
      <point x="480" y="716" type="qcurve" smooth="no"/>
    </contour>
    <contour>
      <point x="227" y="500" type="line" smooth="no"/>
      <point x="193" y="435" type="line" smooth="no"/>
      <point x="141" y="428" type="line" smooth="no"/>
      <point x="104" y="432" type="line" smooth="no"/>
      <point x="128" y="547" type="line" smooth="no"/>
      <point x="105" y="546"/>
      <point x="34" y="546" type="line" smooth="no"/>
      <point x="38" y="654" type="line" smooth="no"/>
      <point x="41" y="654" type="line" smooth="no"/>
      <point x="41" y="667"/>
      <point x="43" y="693"/>
      <point x="45" y="706" type="qcurve" smooth="no"/>
      <point x="92" y="713"/>
      <point x="179" y="710"/>
      <point x="228" y="716" type="qcurve" smooth="no"/>
      <point x="226" y="691" type="line" smooth="no"/>
      <point x="244" y="596" type="line" smooth="no"/>
    </contour>
  </outline>
</glyph>
<glyph name="quotedblbase" format="1">
  <advance width="556"/>
  <unicode hex="201e"/>
  <outline>
    <contour>
      <point x="498" y="92" type="qcurve" smooth="yes"/>
      <point x="498" y="-14"/>
      <point x="416" y="-109" type="qcurve" smooth="yes"/>
      <point x="389" y="-140"/>
      <point x="343" y="-171"/>
      <point x="328" y="-171" type="qcurve" smooth="yes"/>
      <point x="321" y="-171"/>
      <point x="303" y="-162"/>
      <point x="287" y="-147"/>
      <point x="276" y="-128"/>
      <point x="276" y="-119" type="qcurve" smooth="yes"/>
      <point x="276" y="-114"/>
      <point x="282" y="-109"/>
      <point x="286" y="-104" type="qcurve" smooth="yes"/>
      <point x="307" y="-81" type="line" smooth="yes"/>
      <point x="330" y="-57"/>
      <point x="350" y="-14"/>
      <point x="350" y="-6" type="qcurve" smooth="yes"/>
      <point x="350" y="5"/>
      <point x="338" y="14"/>
      <point x="329" y="20" type="qcurve" smooth="yes"/>
      <point x="300" y="39"/>
      <point x="273" y="83"/>
      <point x="273" y="116" type="qcurve" smooth="yes"/>
      <point x="273" y="139"/>
      <point x="290" y="179"/>
      <point x="321" y="209"/>
      <point x="363" y="226"/>
      <point x="387" y="226" type="qcurve" smooth="yes"/>
      <point x="437" y="226"/>
      <point x="498" y="155"/>
    </contour>
    <contour>
      <point x="225" y="92" type="qcurve" smooth="yes"/>
      <point x="225" y="-11"/>
      <point x="142" y="-109" type="qcurve" smooth="yes"/>
      <point x="115" y="-140"/>
      <point x="69" y="-171"/>
      <point x="54" y="-171" type="qcurve" smooth="yes"/>
      <point x="47" y="-171"/>
      <point x="29" y="-162"/>
      <point x="14" y="-147"/>
      <point x="3" y="-128"/>
      <point x="3" y="-119" type="qcurve" smooth="yes"/>
      <point x="3" y="-114"/>
      <point x="8" y="-109"/>
      <point x="12" y="-104" type="qcurve" smooth="yes"/>
      <point x="34" y="-81" type="line" smooth="yes"/>
      <point x="57" y="-57"/>
      <point x="76" y="-14"/>
      <point x="76" y="-6" type="qcurve" smooth="yes"/>
      <point x="76" y="5"/>
      <point x="64" y="14"/>
      <point x="55" y="20" type="qcurve" smooth="yes"/>
      <point x="26" y="39"/>
      <point x="0" y="83"/>
      <point x="0" y="116" type="qcurve" smooth="yes"/>
      <point x="0" y="139"/>
      <point x="17" y="179"/>
      <point x="47" y="209"/>
      <point x="89" y="226"/>
      <point x="113" y="226" type="qcurve" smooth="yes"/>
      <point x="163" y="226"/>
      <point x="225" y="155"/>
    </contour>
  </outline>
</glyph>
<glyph name="dagger" format="1">
  <advance width="546"/>
  <unicode hex="2020"/>
  <outline>
    <contour>
      <point x="585" y="487" type="qcurve" smooth="yes"/>
      <point x="585" y="439"/>
      <point x="545" y="386"/>
      <point x="510" y="386" type="qcurve" smooth="yes"/>
      <point x="496" y="386"/>
      <point x="465" y="397"/>
      <point x="429" y="413"/>
      <point x="387" y="430"/>
      <point x="362" y="435" type="qcurve" smooth="no"/>
      <point x="361" y="428"/>
      <point x="361" y="409" type="line" smooth="yes"/>
      <point x="361" y="334"/>
      <point x="397" y="243" type="qcurve" smooth="no"/>
      <point x="363" y="185"/>
      <point x="320" y="-39"/>
      <point x="297" y="-207" type="qcurve" smooth="no"/>
      <point x="215" y="-207" type="line" smooth="no"/>
      <point x="220" y="-122"/>
      <point x="226" y="19"/>
      <point x="226" y="78" type="qcurve" smooth="yes"/>
      <point x="226" y="124"/>
      <point x="218" y="206"/>
      <point x="207" y="243" type="qcurve" smooth="no"/>
      <point x="239" y="300"/>
      <point x="277" y="394"/>
      <point x="282" y="434" type="qcurve" smooth="no"/>
      <point x="256" y="429"/>
      <point x="213" y="414"/>
      <point x="176" y="398"/>
      <point x="142" y="387"/>
      <point x="126" y="387" type="qcurve" smooth="yes"/>
      <point x="67" y="387"/>
      <point x="67" y="451" type="qcurve" smooth="yes"/>
      <point x="67" y="497"/>
      <point x="106" y="547"/>
      <point x="141" y="547" type="qcurve" smooth="yes"/>
      <point x="157" y="547"/>
      <point x="267" y="503"/>
      <point x="292" y="499" type="qcurve" smooth="no"/>
      <point x="292" y="511" type="line" smooth="yes"/>
      <point x="292" y="535"/>
      <point x="283" y="577"/>
      <point x="271" y="613"/>
      <point x="262" y="645"/>
      <point x="262" y="660" type="qcurve" smooth="yes"/>
      <point x="262" y="695"/>
      <point x="309" y="741"/>
      <point x="351" y="741" type="qcurve" smooth="yes"/>
      <point x="428" y="741"/>
      <point x="428" y="677" type="qcurve" smooth="yes"/>
      <point x="428" y="660"/>
      <point x="417" y="628"/>
      <point x="408" y="610" type="qcurve" smooth="yes"/>
      <point x="368" y="538"/>
      <point x="365" y="500" type="qcurve" smooth="no"/>
      <point x="392" y="504"/>
      <point x="437" y="519"/>
      <point x="511" y="546"/>
      <point x="527" y="546" type="qcurve" smooth="yes"/>
      <point x="555" y="546"/>
      <point x="585" y="515"/>
    </contour>
  </outline>
</glyph>
<glyph name="ellipsis" format="1">
  <advance width="994"/>
  <unicode hex="2026"/>
  <outline>
    <contour>
      <point x="937" y="105" type="qcurve" smooth="yes"/>
      <point x="937" y="80"/>
      <point x="919" y="36"/>
      <point x="887" y="4"/>
      <point x="843" y="-14"/>
      <point x="818" y="-14" type="qcurve" smooth="yes"/>
      <point x="793" y="-14"/>
      <point x="749" y="4"/>
      <point x="717" y="36"/>
      <point x="698" y="80"/>
      <point x="698" y="105" type="qcurve" smooth="yes"/>
      <point x="698" y="130"/>
      <point x="717" y="174"/>
      <point x="749" y="206"/>
      <point x="793" y="225"/>
      <point x="818" y="225" type="qcurve" smooth="yes"/>
      <point x="843" y="225"/>
      <point x="887" y="206"/>
      <point x="919" y="174"/>
      <point x="937" y="130"/>
    </contour>
    <contour>
      <point x="603" y="105" type="qcurve" smooth="yes"/>
      <point x="603" y="80"/>
      <point x="585" y="36"/>
      <point x="553" y="4"/>
      <point x="509" y="-14"/>
      <point x="484" y="-14" type="qcurve" smooth="yes"/>
      <point x="459" y="-14"/>
      <point x="415" y="4"/>
      <point x="383" y="36"/>
      <point x="364" y="80"/>
      <point x="364" y="105" type="qcurve" smooth="yes"/>
      <point x="364" y="130"/>
      <point x="383" y="174"/>
      <point x="415" y="206"/>
      <point x="459" y="225"/>
      <point x="484" y="225" type="qcurve" smooth="yes"/>
      <point x="509" y="225"/>
      <point x="553" y="206"/>
      <point x="585" y="174"/>
      <point x="603" y="130"/>
    </contour>
    <contour>
      <point x="270" y="105" type="qcurve" smooth="yes"/>
      <point x="270" y="80"/>
      <point x="252" y="36"/>
      <point x="220" y="4"/>
      <point x="176" y="-14"/>
      <point x="151" y="-14" type="qcurve" smooth="yes"/>
      <point x="126" y="-14"/>
      <point x="82" y="4"/>
      <point x="50" y="36"/>
      <point x="31" y="80"/>
      <point x="31" y="105" type="qcurve" smooth="yes"/>
      <point x="31" y="130"/>
      <point x="50" y="174"/>
      <point x="82" y="206"/>
      <point x="126" y="225"/>
      <point x="151" y="225" type="qcurve" smooth="yes"/>
      <point x="176" y="225"/>
      <point x="220" y="206"/>
      <point x="252" y="174"/>
      <point x="270" y="130"/>
    </contour>
  </outline>
</glyph>
<glyph name="perthousand" format="1">
  <advance width="1248"/>
  <unicode hex="2030"/>
  <outline>
    <contour>
      <point x="1263" y="229" type="qcurve" smooth="yes"/>
      <point x="1263" y="181"/>
      <point x="1230" y="97"/>
      <point x="1171" y="36"/>
      <point x="1091" y="0"/>
      <point x="1044" y="0" type="qcurve" smooth="yes"/>
      <point x="977" y="0"/>
      <point x="894" y="88"/>
      <point x="894" y="162" type="qcurve" smooth="yes"/>
      <point x="894" y="212"/>
      <point x="927" y="297"/>
      <point x="984" y="359"/>
      <point x="1061" y="394"/>
      <point x="1105" y="394" type="qcurve" smooth="yes"/>
      <point x="1178" y="394"/>
      <point x="1263" y="306"/>
    </contour>
    <contour>
      <point x="859" y="229" type="qcurve" smooth="yes"/>
      <point x="859" y="181"/>
      <point x="826" y="97"/>
      <point x="767" y="36"/>
      <point x="686" y="0"/>
      <point x="639" y="0" type="qcurve" smooth="yes"/>
      <point x="572" y="0"/>
      <point x="489" y="88"/>
      <point x="489" y="162" type="qcurve" smooth="yes"/>
      <point x="489" y="212"/>
      <point x="522" y="297"/>
      <point x="579" y="359"/>
      <point x="656" y="394"/>
      <point x="700" y="394" type="qcurve" smooth="yes"/>
      <point x="773" y="394"/>
      <point x="859" y="306"/>
    </contour>
    <contour>
      <point x="706" y="624" type="qcurve" smooth="yes"/>
      <point x="706" y="614"/>
      <point x="668" y="570" type="line" smooth="yes"/>
      <point x="630" y="525"/>
      <point x="504" y="342"/>
      <point x="418" y="202" type="qcurve" smooth="yes"/>
      <point x="362" y="111"/>
      <point x="316" y="9"/>
      <point x="312" y="1" type="qcurve" smooth="yes"/>
      <point x="307" y="-10"/>
      <point x="297" y="-18"/>
      <point x="289" y="-18" type="qcurve" smooth="yes"/>
      <point x="273" y="-18"/>
      <point x="204" y="27" type="qcurve" smooth="yes"/>
      <point x="198" y="31"/>
      <point x="191" y="42"/>
      <point x="191" y="47" type="qcurve" smooth="yes"/>
      <point x="191" y="53"/>
      <point x="402" y="372" type="line" smooth="yes"/>
      <point x="450" y="449"/>
      <point x="566" y="649"/>
      <point x="595" y="690"/>
      <point x="603" y="690" type="qcurve" smooth="yes"/>
      <point x="614" y="690"/>
      <point x="696" y="641" type="line" smooth="yes"/>
      <point x="706" y="634"/>
    </contour>
    <contour>
      <point x="397" y="509" type="qcurve" smooth="yes"/>
      <point x="397" y="461"/>
      <point x="364" y="377"/>
      <point x="305" y="316"/>
      <point x="224" y="280"/>
      <point x="177" y="280" type="qcurve" smooth="yes"/>
      <point x="110" y="280"/>
      <point x="27" y="368"/>
      <point x="27" y="442" type="qcurve" smooth="yes"/>
      <point x="27" y="492"/>
      <point x="60" y="577"/>
      <point x="117" y="639"/>
      <point x="194" y="674"/>
      <point x="238" y="674" type="qcurve" smooth="yes"/>
      <point x="311" y="674"/>
      <point x="397" y="586"/>
    </contour>
    <contour>
      <point x="1120" y="287" type="qcurve" smooth="yes"/>
      <point x="1120" y="325"/>
      <point x="1098" y="325" type="qcurve" smooth="yes"/>
      <point x="1084" y="325"/>
      <point x="1068" y="294"/>
      <point x="1060" y="262" type="qcurve" smooth="yes"/>
      <point x="1049" y="214"/>
      <point x="1041" y="131"/>
      <point x="1041" y="110" type="qcurve" smooth="yes"/>
      <point x="1041" y="71"/>
      <point x="1062" y="71" type="qcurve" smooth="yes"/>
      <point x="1075" y="71"/>
      <point x="1089" y="87"/>
      <point x="1094" y="105" type="qcurve" smooth="yes"/>
      <point x="1100" y="128"/>
      <point x="1110" y="178"/>
      <point x="1117" y="226"/>
      <point x="1120" y="269"/>
    </contour>
    <contour>
      <point x="715" y="287" type="qcurve" smooth="yes"/>
      <point x="715" y="325"/>
      <point x="692" y="325" type="qcurve" smooth="yes"/>
      <point x="678" y="325"/>
      <point x="663" y="294"/>
      <point x="655" y="262" type="qcurve" smooth="yes"/>
      <point x="644" y="214"/>
      <point x="636" y="131"/>
      <point x="636" y="110" type="qcurve" smooth="yes"/>
      <point x="636" y="90"/>
      <point x="645" y="71"/>
      <point x="657" y="71" type="qcurve" smooth="yes"/>
      <point x="670" y="71"/>
      <point x="684" y="87"/>
      <point x="689" y="105" type="qcurve" smooth="yes"/>
      <point x="695" y="128"/>
      <point x="705" y="178"/>
      <point x="712" y="226"/>
      <point x="715" y="269"/>
    </contour>
    <contour>
      <point x="251" y="567" type="qcurve" smooth="yes"/>
      <point x="251" y="605"/>
      <point x="229" y="605" type="qcurve" smooth="yes"/>
      <point x="215" y="605"/>
      <point x="199" y="574"/>
      <point x="191" y="542" type="qcurve" smooth="yes"/>
      <point x="180" y="494"/>
      <point x="172" y="411"/>
      <point x="172" y="390" type="qcurve" smooth="yes"/>
      <point x="172" y="351"/>
      <point x="194" y="351" type="qcurve" smooth="yes"/>
      <point x="207" y="351"/>
      <point x="220" y="367"/>
      <point x="225" y="385" type="qcurve" smooth="yes"/>
      <point x="231" y="408"/>
      <point x="241" y="458"/>
      <point x="248" y="506"/>
      <point x="251" y="549"/>
    </contour>
  </outline>
</glyph>
<glyph name="guilsinglleft" format="1">
  <advance width="276"/>
  <unicode hex="2039"/>
  <outline>
    <contour>
      <point x="278" y="456" type="qcurve" smooth="yes"/>
      <point x="278" y="421"/>
      <point x="205" y="328" type="qcurve" smooth="yes"/>
      <point x="184" y="301"/>
      <point x="158" y="271"/>
      <point x="158" y="263" type="qcurve" smooth="yes"/>
      <point x="158" y="258"/>
      <point x="188" y="196" type="line" smooth="yes"/>
      <point x="209" y="152"/>
      <point x="229" y="93"/>
      <point x="229" y="79" type="qcurve" smooth="yes"/>
      <point x="229" y="59"/>
      <point x="208" y="35"/>
      <point x="192" y="35" type="qcurve" smooth="yes"/>
      <point x="172" y="35"/>
      <point x="133" y="80"/>
      <point x="102" y="119" type="qcurve" smooth="yes"/>
      <point x="58" y="176"/>
      <point x="18" y="249"/>
      <point x="18" y="263" type="qcurve" smooth="yes"/>
      <point x="18" y="281"/>
      <point x="70" y="343"/>
      <point x="119" y="394" type="qcurve" smooth="yes"/>
      <point x="165" y="442"/>
      <point x="222" y="492"/>
      <point x="242" y="492" type="qcurve" smooth="yes"/>
      <point x="259" y="492"/>
      <point x="278" y="473"/>
    </contour>
  </outline>
</glyph>
<glyph name="guilsinglright" format="1">
  <advance width="295"/>
  <unicode hex="203a"/>
  <outline>
    <contour>
      <point x="273" y="264" type="qcurve" smooth="yes"/>
      <point x="273" y="246"/>
      <point x="221" y="185"/>
      <point x="172" y="134" type="qcurve" smooth="yes"/>
      <point x="126" y="86"/>
      <point x="68" y="35"/>
      <point x="48" y="35" type="qcurve" smooth="yes"/>
      <point x="31" y="35"/>
      <point x="13" y="54"/>
      <point x="13" y="71" type="qcurve" smooth="yes"/>
      <point x="13" y="107"/>
      <point x="85" y="199" type="qcurve" smooth="yes"/>
      <point x="106" y="226"/>
      <point x="133" y="256"/>
      <point x="133" y="264" type="qcurve" smooth="yes"/>
      <point x="133" y="269"/>
      <point x="102" y="331" type="line" smooth="yes"/>
      <point x="81" y="375"/>
      <point x="62" y="435"/>
      <point x="62" y="449" type="qcurve" smooth="yes"/>
      <point x="62" y="469"/>
      <point x="82" y="492"/>
      <point x="98" y="492" type="qcurve" smooth="yes"/>
      <point x="118" y="492"/>
      <point x="157" y="447"/>
      <point x="188" y="408" type="qcurve" smooth="yes"/>
      <point x="232" y="351"/>
      <point x="273" y="278"/>
    </contour>
  </outline>
</glyph>
<glyph name="trademark" format="1">
  <advance width="686"/>
  <unicode hex="2122"/>
  <outline>
    <contour>
      <point x="562" y="443" type="line" smooth="no"/>
      <point x="562" y="461" type="line" smooth="no"/>
      <point x="577" y="465" type="line" smooth="yes"/>
      <point x="591" y="469"/>
      <point x="591" y="488" type="qcurve" smooth="yes"/>
      <point x="591" y="654" type="line" smooth="no"/>
      <point x="525" y="443" type="line" smooth="no"/>
      <point x="499" y="443" type="line" smooth="no"/>
      <point x="420" y="661" type="line" smooth="no"/>
      <point x="420" y="488" type="line" smooth="yes"/>
      <point x="420" y="468"/>
      <point x="434" y="465" type="qcurve" smooth="yes"/>
      <point x="452" y="461" type="line" smooth="no"/>
      <point x="452" y="443" type="line" smooth="no"/>
      <point x="357" y="443" type="line" smooth="no"/>
      <point x="357" y="461" type="line" smooth="no"/>
      <point x="374" y="465" type="line" smooth="yes"/>
      <point x="389" y="468"/>
      <point x="389" y="488" type="qcurve" smooth="yes"/>
      <point x="389" y="672" type="line" smooth="yes"/>
      <point x="389" y="692"/>
      <point x="374" y="695" type="qcurve" smooth="yes"/>
      <point x="357" y="699" type="line" smooth="no"/>
      <point x="357" y="717" type="line" smooth="no"/>
      <point x="472" y="717" type="line" smooth="no"/>
      <point x="531" y="550" type="line" smooth="no"/>
      <point x="585" y="717" type="line" smooth="no"/>
      <point x="693" y="717" type="line" smooth="no"/>
      <point x="693" y="703" type="line" smooth="no"/>
      <point x="683" y="699" type="line" smooth="yes"/>
      <point x="674" y="695"/>
      <point x="669" y="687"/>
      <point x="669" y="676" type="qcurve" smooth="yes"/>
      <point x="669" y="488" type="line" smooth="yes"/>
      <point x="669" y="477"/>
      <point x="674" y="469"/>
      <point x="683" y="465" type="qcurve" smooth="yes"/>
      <point x="693" y="461" type="line" smooth="no"/>
      <point x="693" y="443" type="line" smooth="no"/>
    </contour>
    <contour>
      <point x="319" y="616" type="line" smooth="no"/>
      <point x="316" y="652"/>
      <point x="289" y="690"/>
      <point x="261" y="691" type="qcurve" smooth="no"/>
      <point x="261" y="488" type="line" smooth="yes"/>
      <point x="261" y="468"/>
      <point x="273" y="465" type="qcurve" smooth="yes"/>
      <point x="288" y="461" type="line" smooth="no"/>
      <point x="288" y="443" type="line" smooth="no"/>
      <point x="151" y="443" type="line" smooth="no"/>
      <point x="151" y="461" type="line" smooth="no"/>
      <point x="167" y="465" type="line" smooth="yes"/>
      <point x="179" y="468"/>
      <point x="179" y="488" type="qcurve" smooth="yes"/>
      <point x="179" y="691" type="line" smooth="no"/>
      <point x="126" y="691"/>
      <point x="120" y="616" type="qcurve" smooth="no"/>
      <point x="101" y="616" type="line" smooth="no"/>
      <point x="107" y="717" type="line" smooth="no"/>
      <point x="332" y="717" type="line" smooth="no"/>
      <point x="338" y="616" type="line" smooth="no"/>
    </contour>
  </outline>
</glyph>
<glyph name="fi" format="1">
  <advance width="772"/>
  <unicode hex="fb01"/>
  <outline>
    <contour>
      <point x="764" y="673" type="qcurve" smooth="yes"/>
      <point x="764" y="652"/>
      <point x="733" y="608"/>
      <point x="679" y="574"/>
      <point x="605" y="552"/>
      <point x="562" y="552" type="qcurve" smooth="yes"/>
      <point x="520" y="552"/>
      <point x="472" y="586"/>
      <point x="472" y="612" type="qcurve" smooth="yes"/>
      <point x="472" y="658"/>
      <point x="538" y="696" type="qcurve" smooth="yes"/>
      <point x="568" y="713"/>
      <point x="638" y="732"/>
      <point x="668" y="732" type="qcurve" smooth="yes"/>
      <point x="713" y="732"/>
      <point x="764" y="698"/>
    </contour>
    <contour>
      <point x="749" y="125" type="qcurve" smooth="yes"/>
      <point x="749" y="87"/>
      <point x="698" y="50" type="qcurve" smooth="yes"/>
      <point x="658" y="21"/>
      <point x="574" y="-8"/>
      <point x="537" y="-8" type="qcurve" smooth="yes"/>
      <point x="446" y="-8"/>
      <point x="446" y="63" type="qcurve" smooth="yes"/>
      <point x="446" y="80"/>
      <point x="451" y="123"/>
      <point x="457" y="151" type="qcurve" smooth="yes"/>
      <point x="487" y="289" type="line" smooth="yes"/>
      <point x="494" y="318"/>
      <point x="494" y="337" type="qcurve" smooth="yes"/>
      <point x="494" y="346"/>
      <point x="490" y="353"/>
      <point x="483" y="356"/>
      <point x="470" y="357"/>
      <point x="461" y="359" type="qcurve" smooth="yes"/>
      <point x="449" y="362"/>
      <point x="434" y="380"/>
      <point x="434" y="391" type="qcurve" smooth="yes"/>
      <point x="434" y="431"/>
      <point x="502" y="464" type="qcurve" smooth="yes"/>
      <point x="548" y="487"/>
      <point x="642" y="509"/>
      <point x="676" y="509" type="qcurve" smooth="yes"/>
      <point x="739" y="509"/>
      <point x="739" y="455" type="qcurve" smooth="yes"/>
      <point x="739" y="442"/>
      <point x="730" y="386"/>
      <point x="722" y="344" type="qcurve" smooth="yes"/>
      <point x="706" y="258" type="line" smooth="yes"/>
      <point x="700" y="226"/>
      <point x="691" y="183"/>
      <point x="691" y="171" type="qcurve" smooth="yes"/>
      <point x="691" y="155"/>
      <point x="699" y="155" type="qcurve" smooth="yes"/>
      <point x="707" y="155"/>
      <point x="719" y="157"/>
      <point x="724" y="157" type="qcurve" smooth="yes"/>
      <point x="749" y="157"/>
    </contour>
    <contour>
      <point x="418" y="634" type="qcurve" smooth="yes"/>
      <point x="418" y="592"/>
      <point x="367" y="541"/>
      <point x="331" y="541" type="qcurve" smooth="yes"/>
      <point x="291" y="541"/>
      <point x="254" y="577" type="qcurve" smooth="yes"/>
      <point x="243" y="588"/>
      <point x="226" y="609"/>
      <point x="212" y="609" type="qcurve" smooth="yes"/>
      <point x="201" y="609"/>
      <point x="187" y="593"/>
      <point x="187" y="581" type="qcurve" smooth="yes"/>
      <point x="187" y="559"/>
      <point x="211" y="543" type="qcurve" smooth="yes"/>
      <point x="227" y="532"/>
      <point x="275" y="525"/>
      <point x="297" y="512" type="qcurve" smooth="yes"/>
      <point x="314" y="502"/>
      <point x="330" y="479"/>
      <point x="341" y="459"/>
      <point x="350" y="446"/>
      <point x="361" y="446" type="qcurve" smooth="yes"/>
      <point x="372" y="446" type="line" smooth="yes"/>
      <point x="382" y="446"/>
      <point x="394" y="447"/>
      <point x="396" y="447" type="qcurve" smooth="yes"/>
      <point x="410" y="447"/>
      <point x="410" y="433" type="qcurve" smooth="yes"/>
      <point x="410" y="431"/>
      <point x="409" y="425"/>
      <point x="409" y="422" type="qcurve" smooth="yes"/>
      <point x="402" y="342" type="line" smooth="yes"/>
      <point x="402" y="338"/>
      <point x="401" y="334"/>
      <point x="401" y="333" type="qcurve" smooth="yes"/>
      <point x="401" y="324"/>
      <point x="384" y="318"/>
      <point x="369" y="318" type="qcurve" smooth="yes"/>
      <point x="355" y="318" type="line" smooth="yes"/>
      <point x="345" y="318"/>
      <point x="339" y="303"/>
      <point x="337" y="289" type="qcurve" smooth="yes"/>
      <point x="322" y="201"/>
      <point x="301" y="47"/>
      <point x="296" y="-19" type="qcurve" smooth="yes"/>
      <point x="294" y="-40"/>
      <point x="293" y="-76"/>
      <point x="289" y="-106"/>
      <point x="279" y="-130"/>
      <point x="269" y="-139" type="qcurve" smooth="yes"/>
      <point x="257" y="-150"/>
      <point x="222" y="-169"/>
      <point x="181" y="-184"/>
      <point x="137" y="-193"/>
      <point x="116" y="-193" type="qcurve" smooth="yes"/>
      <point x="63" y="-193"/>
      <point x="5" y="-155"/>
      <point x="5" y="-126" type="qcurve" smooth="yes"/>
      <point x="5" y="-108"/>
      <point x="23" y="-88"/>
      <point x="31" y="-78" type="qcurve" smooth="yes"/>
      <point x="41" y="-64"/>
      <point x="55" y="-24"/>
      <point x="62" y="3" type="qcurve" smooth="yes"/>
      <point x="78" y="71"/>
      <point x="98" y="180"/>
      <point x="108" y="260"/>
      <point x="112" y="307"/>
      <point x="112" y="313" type="qcurve" smooth="yes"/>
      <point x="112" y="321"/>
      <point x="109" y="324"/>
      <point x="101" y="324" type="qcurve" smooth="yes"/>
      <point x="60" y="324" type="line" smooth="no"/>
      <point x="46" y="324" type="line" smooth="yes"/>
      <point x="33" y="324"/>
      <point x="24" y="328"/>
      <point x="24" y="340" type="qcurve" smooth="yes"/>
      <point x="24" y="346" type="line" smooth="no"/>
      <point x="29" y="418" type="line" smooth="yes"/>
      <point x="31" y="438"/>
      <point x="41" y="446"/>
      <point x="61" y="446" type="qcurve" smooth="yes"/>
      <point x="103" y="446" type="line" smooth="yes"/>
      <point x="110" y="446"/>
      <point x="110" y="451" type="qcurve" smooth="yes"/>
      <point x="110" y="460"/>
      <point x="93" y="473"/>
      <point x="84" y="484" type="qcurve" smooth="yes"/>
      <point x="56" y="516"/>
      <point x="56" y="568" type="qcurve" smooth="yes"/>
      <point x="56" y="605"/>
      <point x="89" y="672"/>
      <point x="148" y="722"/>
      <point x="228" y="752"/>
      <point x="276" y="752" type="qcurve" smooth="yes"/>
      <point x="344" y="752"/>
      <point x="418" y="686"/>
    </contour>
  </outline>
</glyph>
